<svg width="20" height="20" viewBox="0 0 20 20" fill="none" xmlns="http://www.w3.org/2000/svg">
<path d="M10.0001 12.4792C9.88897 12.4792 9.7848 12.462 9.68758 12.4275C9.59036 12.3931 9.50008 12.3339 9.41675 12.25L5.58341 8.41671C5.43064 8.26393 5.35425 8.06948 5.35425 7.83337C5.35425 7.59726 5.43064 7.40282 5.58341 7.25004C5.73619 7.09726 5.93064 7.02087 6.16675 7.02087C6.40286 7.02087 6.5973 7.09726 6.75008 7.25004L10.0001 10.5L13.2501 7.25004C13.4029 7.09726 13.5973 7.02087 13.8334 7.02087C14.0695 7.02087 14.264 7.09726 14.4167 7.25004C14.5695 7.40282 14.6459 7.59726 14.6459 7.83337C14.6459 8.06948 14.5695 8.26393 14.4167 8.41671L10.5834 12.25C10.5001 12.3334 10.4098 12.3925 10.3126 12.4275C10.2154 12.4625 10.1112 12.4798 10.0001 12.4792Z" fill="black"/>
</svg>
