<svg width="20" height="20" viewBox="0 0 20 20" fill="none" xmlns="http://www.w3.org/2000/svg">
<path d="M18.75 5H13.75V3.75C13.75 3.0625 13.1875 2.5 12.5 2.5H7.5C6.81242 2.5 6.25 3.0625 6.25 3.75V5H1.25C0.5625 5 0 5.5625 0 6.25V17.5C0 18.1875 0.562422 18.75 1.25 18.75H18.75C19.4375 18.75 20 18.1875 20 17.5V6.25C20 5.5625 19.4375 5 18.75 5ZM7.5 3.75227C7.50066 3.75148 7.50145 3.75066 7.50223 3.75H12.4978C12.4986 3.75066 12.4994 3.75148 12.5001 3.75227V5H7.5V3.75227ZM18.75 10H16.25V11.875C16.25 12.2188 15.9688 12.5 15.625 12.5H14.375C14.0312 12.5 13.75 12.2188 13.75 11.875V10H6.25V11.875C6.25 12.2188 5.96875 12.5 5.625 12.5H4.375C4.03121 12.5 3.75 12.2188 3.75 11.875V10H1.25V8.75H18.75V10Z" fill="black"/>
</svg>
