<svg width="20" height="20" viewBox="0 0 20 20" fill="none" xmlns="http://www.w3.org/2000/svg">
<mask id="mask0_169_7" style="mask-type:alpha" maskUnits="userSpaceOnUse" x="0" y="0" width="20" height="20">
<rect width="20" height="20" fill="#D9D9D9"/>
</mask>
<g mask="url(#mask0_169_7)">
<path d="M5.00008 17.5C4.37508 17.5 3.75703 17.3472 3.14591 17.0416C2.5348 16.7361 2.04175 16.3333 1.66675 15.8333C2.02786 15.8333 2.39591 15.6909 2.77091 15.4062C3.14591 15.1215 3.33341 14.7083 3.33341 14.1666C3.33341 13.4722 3.57647 12.8819 4.06258 12.3958C4.54869 11.9097 5.13897 11.6666 5.83341 11.6666C6.52786 11.6666 7.11814 11.9097 7.60425 12.3958C8.09036 12.8819 8.33341 13.4722 8.33341 14.1666C8.33341 15.0833 8.00703 15.868 7.35425 16.5208C6.70147 17.1736 5.91675 17.5 5.00008 17.5ZM5.00008 15.8333C5.45841 15.8333 5.85078 15.6701 6.17716 15.3437C6.50355 15.0173 6.66675 14.625 6.66675 14.1666C6.66675 13.9305 6.58689 13.7326 6.42716 13.5729C6.26744 13.4132 6.06953 13.3333 5.83341 13.3333C5.5973 13.3333 5.39939 13.4132 5.23966 13.5729C5.07994 13.7326 5.00008 13.9305 5.00008 14.1666C5.00008 14.4861 4.96189 14.7777 4.8855 15.0416C4.80911 15.3055 4.70841 15.5555 4.58341 15.7916C4.65286 15.8194 4.7223 15.8333 4.79175 15.8333H5.00008ZM9.79175 12.5L7.50008 10.2083L15.5417 2.16663L17.8334 4.45829L9.79175 12.5Z" fill="black"/>
</g>
</svg>
