<svg width="20" height="20" viewBox="0 0 20 20" fill="none" xmlns="http://www.w3.org/2000/svg">
<g clip-path="url(#clip0_21_92)">
<path d="M10 20C15.5229 20 20 15.5229 20 10C20 4.47715 15.5229 0 10 0C4.47715 0 0 4.47715 0 10C0 15.5229 4.47715 20 10 20ZM10 1.875C14.4873 1.875 18.125 5.5127 18.125 10C18.125 14.4873 14.4873 18.125 10 18.125C5.5127 18.125 1.875 14.4873 1.875 10C1.875 5.5127 5.5127 1.875 10 1.875ZM15.625 5C15.9688 5 16.25 5.28125 16.25 5.625V7.5C16.25 8.1875 15.6875 8.75 15 8.75H12.5C11.8125 8.75 11.25 8.1875 11.25 7.5H8.75C8.75 8.1875 8.1875 8.75 7.5 8.75H5C4.3125 8.75 3.75 8.1875 3.75 7.5V5.625C3.75 5.28125 4.03125 5 4.375 5H8.125C8.46875 5 8.75 5.28125 8.75 5.625V6.25H11.25V5.625C11.25 5.28125 11.5312 5 11.875 5H15.625ZM10 15C11.8205 15 13.4135 14.027 14.288 12.5727L15.3599 13.2159C14.2668 15.0337 12.2756 16.25 10 16.25C9.05355 16.25 8.15656 16.0391 7.35273 15.6625L8.00043 14.5828C8.61281 14.8507 9.28879 15 10 15Z" fill="black"/>
</g>
<defs>
<clipPath id="clip0_21_92">
<rect width="20" height="20" fill="white"/>
</clipPath>
</defs>
</svg>
