<svg width="20" height="20" viewBox="0 0 20 20" fill="none" xmlns="http://www.w3.org/2000/svg">
<g clip-path="url(#clip0_23_191)">
<path d="M10 0C4.47715 0 0 1.3991 0 3.125V5.625C0 7.3509 4.47715 8.75 10 8.75C15.5229 8.75 20 7.3509 20 5.625V3.125C20 1.3991 15.5229 0 10 0Z" fill="black"/>
<path d="M10 10.625C4.47715 10.625 0 9.2259 0 7.5V11.25C0 12.9759 4.47715 14.375 10 14.375C15.5229 14.375 20 12.9759 20 11.25V7.5C20 9.2259 15.5229 10.625 10 10.625Z" fill="black"/>
<path d="M10 16.25C4.47715 16.25 0 14.8509 0 13.125V16.875C0 18.6009 4.47715 20 10 20C15.5229 20 20 18.6009 20 16.875V13.125C20 14.8509 15.5229 16.25 10 16.25Z" fill="black"/>
</g>
<defs>
<clipPath id="clip0_23_191">
<rect width="20" height="20" fill="white"/>
</clipPath>
</defs>
</svg>
