<svg width="20" height="20" viewBox="0 0 20 20" fill="none" xmlns="http://www.w3.org/2000/svg">
<g clip-path="url(#clip0_23_252)">
<path d="M10 9.99999C10 8.15903 11.4924 6.66665 13.3334 6.66665C15.1743 6.66665 16.6667 8.15903 16.6667 9.99999C16.6667 11.8409 15.1743 13.3333 13.3334 13.3333C11.4924 13.3333 10 11.8409 10 9.99999ZM3.33337 16.6666C3.33337 14.8257 4.82576 13.3333 6.66671 13.3333H10.0001V16.6666C10.0001 18.5076 8.50767 20 6.66671 20C4.82576 20 3.33337 18.5076 3.33337 16.6666ZM10 -1.09863e-05V6.66665H13.3334C15.1743 6.66665 16.6667 5.17427 16.6667 3.33331C16.6667 1.49235 15.1743 -3.05176e-05 13.3334 -3.05176e-05L10 -1.09863e-05ZM3.33337 3.33333C3.33337 5.17429 4.82576 6.66667 6.66671 6.66667H10.0001V8.54492e-06H6.66671C4.82576 8.54492e-06 3.33337 1.49237 3.33337 3.33333ZM3.33337 9.99999C3.33337 11.8409 4.82576 13.3333 6.66671 13.3333H10.0001V6.66667H6.66671C4.82576 6.66667 3.33337 8.15903 3.33337 9.99999Z" fill="black"/>
</g>
<defs>
<clipPath id="clip0_23_252">
<rect width="20" height="20" fill="white"/>
</clipPath>
</defs>
</svg>
