<svg width="20" height="20" viewBox="0 0 20 20" fill="none" xmlns="http://www.w3.org/2000/svg">
<path d="M3.7917 15.8333C3.08337 15.8333 2.53475 15.5866 2.14587 15.0933C1.75698 14.6 1.61114 13.9994 1.70837 13.2916L2.58337 7.04163C2.70837 6.20829 3.08003 5.52079 3.69837 4.97913C4.3167 4.43746 5.04226 4.16663 5.87503 4.16663H14.125C14.9584 4.16663 15.6842 4.43746 16.3025 4.97913C16.9209 5.52079 17.2923 6.20829 17.4167 7.04163L18.2917 13.2916C18.3889 14 18.2431 14.6008 17.8542 15.0941C17.4653 15.5875 16.9167 15.8338 16.2084 15.8333C15.9167 15.8333 15.6459 15.7813 15.3959 15.6775C15.1459 15.5736 14.9167 15.4172 14.7084 15.2083L12.8334 13.3333H7.1667L5.2917 15.2083C5.08337 15.4166 4.8542 15.573 4.6042 15.6775C4.3542 15.7819 4.08337 15.8338 3.7917 15.8333ZM4.12503 14.0416L6.50003 11.6666H13.5L15.875 14.0416C15.9028 14.0694 16.0139 14.1111 16.2084 14.1666C16.3611 14.1666 16.4828 14.1216 16.5734 14.0316C16.6639 13.9416 16.695 13.82 16.6667 13.6666L15.75 7.24996C15.6945 6.84718 15.5139 6.51051 15.2084 6.23996C14.9028 5.9694 14.5417 5.83385 14.125 5.83329H5.87503C5.45837 5.83329 5.09726 5.96885 4.7917 6.23996C4.48614 6.51107 4.30559 6.84774 4.25003 7.24996L3.33337 13.6666C3.30559 13.8194 3.33698 13.9411 3.42753 14.0316C3.51809 14.1222 3.63948 14.1672 3.7917 14.1666C3.81948 14.1666 3.93059 14.125 4.12503 14.0416ZM14.1667 10.8333C14.4028 10.8333 14.6009 10.7536 14.7609 10.5941C14.9209 10.4347 15.0006 10.2366 15 9.99996C14.9995 9.76329 14.9195 9.56552 14.76 9.40663C14.6006 9.24774 14.4028 9.16774 14.1667 9.16663C13.9306 9.16552 13.7328 9.24552 13.5734 9.40663C13.4139 9.56774 13.3339 9.76552 13.3334 9.99996C13.3328 10.2344 13.4128 10.4325 13.5734 10.5941C13.7339 10.7558 13.9317 10.8355 14.1667 10.8333ZM12.5 8.33329C12.7361 8.33329 12.9342 8.25329 13.0942 8.09329C13.2542 7.93329 13.3339 7.73552 13.3334 7.49996C13.3328 7.2644 13.2528 7.06663 13.0934 6.90663C12.9339 6.74663 12.7361 6.66663 12.5 6.66663C12.2639 6.66663 12.0661 6.74663 11.9067 6.90663C11.7473 7.06663 11.6673 7.2644 11.6667 7.49996C11.6661 7.73552 11.7461 7.93357 11.9067 8.09413C12.0673 8.25468 12.265 8.3344 12.5 8.33329ZM6.45837 10.8333H7.70837V9.37496H9.1667V8.12496H7.70837V6.66663H6.45837V8.12496H5.00003V9.37496H6.45837V10.8333Z" fill="black"/>
</svg>
