<svg width="20" height="20" viewBox="0 0 20 20" fill="none" xmlns="http://www.w3.org/2000/svg">
<g clip-path="url(#clip0_19_31)">
<path d="M19.6229 9.10926L10.8905 0.377225C10.3879 -0.125782 9.57227 -0.125782 9.06891 0.377225L7.03996 2.40605L8.56672 3.93281C8.81148 3.8157 9.08555 3.75 9.375 3.75C10.4105 3.75 11.25 4.58945 11.25 5.625C11.25 5.91445 11.1843 6.18855 11.0671 6.43332L13.5667 8.93281C13.8114 8.8157 14.0855 8.75 14.375 8.75C15.4105 8.75 16.25 9.58945 16.25 10.625C16.25 11.6605 15.4105 12.5 14.375 12.5C13.3395 12.5 12.5 11.6605 12.5 10.625C12.5 10.3355 12.5657 10.0614 12.6829 9.81668L10.1833 7.31719C10.1239 7.34562 10.0627 7.37074 10 7.39289V12.6071C10.7282 12.8646 11.25 13.5586 11.25 14.375C11.25 15.4105 10.4106 16.25 9.37504 16.25C8.33949 16.25 7.50004 15.4105 7.50004 14.375C7.50004 13.5587 8.02188 12.8646 8.75004 12.6071V7.39289C8.02188 7.13547 7.50004 6.44133 7.50004 5.625C7.50004 5.33555 7.56574 5.06148 7.68285 4.81672L6.15609 3.28996L0.376953 9.06879C-0.125977 9.57222 -0.125977 10.3878 0.376953 10.8908L9.10977 19.6229C9.61246 20.1258 10.4278 20.1258 10.9314 19.6229L19.6229 10.9313C20.126 10.4282 20.126 9.61219 19.6229 9.10926Z" fill="black"/>
</g>
<defs>
<clipPath id="clip0_19_31">
<rect width="20" height="20" fill="white"/>
</clipPath>
</defs>
</svg>
