<svg width="20" height="20" viewBox="0 0 20 20" fill="none" xmlns="http://www.w3.org/2000/svg">
<path d="M9.99996 18.3333C8.84718 18.3333 7.76385 18.1144 6.74996 17.6766C5.73607 17.2388 4.85413 16.6452 4.10413 15.8958C3.35413 15.1463 2.76052 14.2644 2.32329 13.25C1.88607 12.2355 1.66718 11.1522 1.66663 9.99996C1.66607 8.84774 1.88496 7.7644 2.32329 6.74996C2.76163 5.73552 3.35524 4.85357 4.10413 4.10413C4.85302 3.35468 5.73496 2.76107 6.74996 2.32329C7.76496 1.88551 8.84829 1.66663 9.99996 1.66663C11.1516 1.66663 12.235 1.88551 13.25 2.32329C14.265 2.76107 15.1469 3.35468 15.8958 4.10413C16.6447 4.85357 17.2386 5.73552 17.6775 6.74996C18.1163 7.7644 18.335 8.84774 18.3333 9.99996C18.3316 11.1522 18.1127 12.2355 17.6766 13.25C17.2405 14.2644 16.6469 15.1463 15.8958 15.8958C15.1447 16.6452 14.2627 17.2391 13.25 17.6775C12.2372 18.1158 11.1538 18.3344 9.99996 18.3333ZM9.16663 16.625V15C8.70829 15 8.31607 14.8369 7.98996 14.5108C7.66385 14.1847 7.50052 13.7922 7.49996 13.3333V12.5L3.49996 8.49996C3.45829 8.74996 3.42024 8.99996 3.38579 9.24996C3.35135 9.49996 3.33385 9.74996 3.33329 9.99996C3.33329 11.6805 3.88552 13.1527 4.98996 14.4166C6.0944 15.6805 7.48663 16.4166 9.16663 16.625ZM14.9166 14.5C15.1944 14.1944 15.4444 13.8647 15.6666 13.5108C15.8888 13.1569 16.0727 12.7888 16.2183 12.4066C16.3638 12.0244 16.475 11.6319 16.5516 11.2291C16.6283 10.8263 16.6666 10.4166 16.6666 9.99996C16.6666 8.63885 16.288 7.39579 15.5308 6.27079C14.7736 5.14579 13.7633 4.33329 12.5 3.83329V4.16663C12.5 4.62496 12.3369 5.01746 12.0108 5.34413C11.6847 5.67079 11.2922 5.83385 10.8333 5.83329H9.16663V7.49996C9.16663 7.73607 9.08663 7.93413 8.92663 8.09413C8.76663 8.25413 8.56885 8.33385 8.33329 8.33329H6.66663V9.99996H11.6666C11.9027 9.99996 12.1008 10.08 12.2608 10.24C12.4208 10.4 12.5005 10.5977 12.5 10.8333V13.3333H13.3333C13.6944 13.3333 14.0208 13.4411 14.3125 13.6566C14.6041 13.8722 14.8055 14.1533 14.9166 14.5Z" fill="black"/>
</svg>
