<svg width="20" height="20" viewBox="0 0 20 20" fill="none" xmlns="http://www.w3.org/2000/svg">
<g clip-path="url(#clip0_21_87)">
<path d="M5.625 11.25H4.375V20H5.625C5.96875 20 6.25 19.7188 6.25 19.375V11.875C6.25 11.5312 5.96875 11.25 5.625 11.25Z" fill="black"/>
<path d="M14.375 11.25C14.0312 11.25 13.75 11.5312 13.75 11.875V19.375C13.75 19.7188 14.0312 20 14.375 20H15.625V11.25H14.375Z" fill="black"/>
<path d="M20 10C20 4.47715 15.5229 0 10 0C4.47715 0 0 4.47715 0 10C0 11.1995 0.211523 12.3494 0.59875 13.415C0.21832 14.0636 0 14.8187 0 15.625C0 17.829 1.62984 19.6521 3.75 19.9554V11.2949C3.12668 11.3841 2.54562 11.6043 2.03605 11.9273C1.93074 11.4054 1.875 10.8655 1.875 10.3125C1.875 5.82519 5.5127 2.1875 10 2.1875C14.4873 2.1875 18.125 5.82519 18.125 10.3125C18.125 10.8655 18.0697 11.4056 17.9645 11.9277C17.4547 11.6045 16.8736 11.3837 16.25 11.2945V19.9554C18.3701 19.6521 20 17.829 20 15.6251C20 14.8189 19.7817 14.0639 19.4014 13.4154C19.7887 12.3496 20 11.1995 20 10Z" fill="black"/>
</g>
<defs>
<clipPath id="clip0_21_87">
<rect width="20" height="20" fill="white"/>
</clipPath>
</defs>
</svg>
