<svg width="20" height="20" viewBox="0 0 20 20" fill="none" xmlns="http://www.w3.org/2000/svg">
<g clip-path="url(#clip0_312_2)">
<path d="M7.37581 15.4666C7.37581 15.4666 6.61165 15.9116 7.91997 16.0616C9.50497 16.2433 10.315 16.2175 12.0608 15.8858C12.0608 15.8858 12.5208 16.1741 13.1616 16.4241C9.24581 18.1016 4.30081 16.3258 7.37581 15.4666ZM6.89663 13.2775C6.89663 13.2775 6.03997 13.9116 7.34829 14.0475C9.04163 14.2216 10.3783 14.2366 12.6925 13.7908C12.6925 13.7908 13.0125 14.115 13.515 14.2925C8.78245 15.6766 3.50911 14.4008 6.89661 13.2775H6.89663ZM10.93 9.56249C11.895 10.6733 10.6766 11.6733 10.6766 11.6733C10.6766 11.6733 13.1258 10.4083 12.0008 8.82499C10.95 7.34833 10.1441 6.61499 14.5066 4.08499C14.5066 4.08415 7.65997 5.79415 10.93 9.56249ZM16.1083 17.0866C16.1083 17.0866 16.6741 17.5525 15.4858 17.9125C13.2258 18.5975 6.07915 18.8033 4.09497 17.94C3.38163 17.6291 4.71997 17.1983 5.13997 17.1083C5.57913 17.0133 5.82997 17.0308 5.82997 17.0308C5.03581 16.4717 0.69997 18.1283 3.62747 18.6033C11.6108 19.8975 18.1791 18.02 16.1083 17.0867V17.0866ZM7.74331 11.0083C7.74331 11.0083 4.10831 11.8717 6.45665 12.185C7.44749 12.3175 9.42415 12.2875 11.265 12.1333C12.77 12.0067 14.28 11.7358 14.28 11.7358C14.28 11.7358 13.7491 11.9625 13.365 12.225C9.67415 13.1958 2.54333 12.7441 4.59665 11.7516C6.33165 10.9133 7.74331 11.0083 7.74331 11.0083V11.0083ZM14.2633 14.6533C18.0158 12.7033 16.2808 10.8292 15.07 11.0825C14.7741 11.1441 14.6408 11.1975 14.6408 11.1975C14.6408 11.1975 14.7508 11.025 14.9617 10.95C17.3575 10.1075 19.2 13.4341 14.1883 14.7516C14.1883 14.7508 14.2467 14.7 14.2633 14.6533ZM12.0008 -1.09863e-05C12.0008 -1.09863e-05 14.0791 2.07833 10.03 5.27499C6.78331 7.83915 9.28997 9.30165 10.0291 10.9716C8.13413 9.26081 6.74329 7.75665 7.67579 6.35581C9.04579 4.29831 12.84 3.30165 12.0008 -3.05176e-05L12.0008 -1.09863e-05ZM8.11163 19.9366C11.7133 20.1675 17.2441 19.8091 17.375 18.105C17.375 18.105 17.1233 18.7508 14.3983 19.2641C11.325 19.8425 7.53247 19.775 5.28415 19.4041C5.28415 19.4033 5.74499 19.785 8.11165 19.9366H8.11163Z" fill="black"/>
</g>
<defs>
<clipPath id="clip0_312_2">
<rect width="20" height="20" fill="white"/>
</clipPath>
</defs>
</svg>
