<svg width="20" height="20" viewBox="0 0 20 20" fill="none" xmlns="http://www.w3.org/2000/svg">
<path fill-rule="evenodd" clip-rule="evenodd" d="M19.9144 10.7765C19.4511 10.7505 19.1111 11.0133 19.0638 11.488C19.0237 11.8907 19.0382 12.2992 19.0298 12.7052C19.0243 12.9631 19.0262 13.2212 19.0151 13.4787C18.9763 14.3532 18.538 14.8312 17.6728 14.9405C17.4496 14.9686 17.224 14.9779 16.9804 14.9972C16.9804 14.6905 16.9804 14.4049 16.9804 14.1017C17.1189 14.0817 17.265 14.0703 17.4064 14.0381C17.7809 13.9527 17.9405 13.7713 17.952 13.3859C17.9663 12.8937 17.9511 12.4007 17.9661 11.9088C17.9746 11.6367 18.0023 11.363 18.0515 11.0956C18.112 10.7652 18.3224 10.5229 18.5871 10.3347C18.5821 10.3085 18.5844 10.2859 18.5755 10.2797C18.0555 9.92067 17.9729 9.37827 17.9645 8.80895C17.9572 8.34005 17.9672 7.87084 17.9608 7.40184C17.9523 6.77119 17.7514 6.56994 17.1157 6.53853C17.0773 6.53663 17.0391 6.53155 16.9821 6.52616C16.9821 6.23088 16.9821 5.93979 16.9821 5.62795C17.4751 5.63523 17.9563 5.65567 18.3897 5.90787C18.8446 6.17244 18.9882 6.61582 19.0094 7.10077C19.0343 7.66262 19.0116 8.22656 19.036 8.78841C19.046 9.01668 19.0879 9.2591 19.1819 9.46434C19.317 9.75822 19.578 9.89435 19.9146 9.8375C19.9144 10.1505 19.9144 10.4636 19.9144 10.7765ZM2.67172 14.0679C2.25248 14.0226 2.03947 13.8007 2.01573 13.3827C2.00785 13.2424 2.01025 13.1014 2.00736 12.9606C1.99649 12.4372 1.99589 11.9131 1.97066 11.3904C1.95131 10.9914 1.79464 10.6479 1.46426 10.402C1.42756 10.375 1.3777 10.3654 1.33212 10.3468C1.87143 9.83541 1.93625 9.73399 1.98661 9.03722C2.02022 8.57021 2.02152 8.09881 2.00357 7.63071C1.96118 6.51709 2.41961 6.53663 3.16745 6.54711C3.18909 6.54741 3.21063 6.55927 3.25969 6.57413C3.25969 6.66119 3.25969 6.75284 3.25969 6.84438C3.25979 8.47108 3.2548 10.0979 3.26298 11.7244C3.26518 12.1912 3.31723 12.657 3.74026 12.9643C4.11832 13.239 4.55989 13.2689 5.02212 13.2838C5.07507 12.9615 5.12473 12.6592 5.1739 12.3599C4.52449 12.2086 4.41091 12.0655 4.41071 11.4328C4.41031 9.59487 4.41051 7.75706 4.41051 5.91914C4.41051 5.8279 4.41051 5.73665 4.41051 5.63672C4.34599 5.63104 4.30839 5.62436 4.27089 5.62516C3.6538 5.63712 3.03511 5.62755 2.41991 5.66814C1.45558 5.73166 0.98967 6.22051 0.955465 7.17916C0.93562 7.73382 0.947886 8.28939 0.938811 8.84455C0.928539 9.479 0.714332 9.74207 0.116187 9.8739C0.102325 9.8768 0.0909564 9.89136 0.0855713 9.89534C0.0855713 10.186 0.0855713 10.4707 0.0855713 10.7526C0.620392 10.8176 0.880073 11.0566 0.918268 11.5828C0.953171 12.0654 0.926644 12.552 0.943398 13.0361C0.953969 13.3392 0.959853 13.6498 1.02856 13.9427C1.20148 14.6799 2.14966 15.1562 2.99782 14.9529C2.99782 14.6751 2.99782 14.3954 2.99782 14.0887C2.87226 14.081 2.77164 14.0789 2.67172 14.0679ZM9.51459 9.27077C9.3284 8.81144 9.02454 8.45762 8.5719 8.24072C7.4143 7.68606 6.00659 8.16932 5.46758 9.33001C5.06141 10.2046 5.07427 11.105 5.43208 11.9919C5.63263 12.489 5.99782 12.8551 6.49484 13.0657C7.4151 13.4554 8.34263 13.3564 9.26618 13.0713C9.31574 13.0559 9.38435 12.9731 9.37886 12.9299C9.34376 12.6563 9.29041 12.385 9.24264 12.1105C8.39548 12.3414 7.9907 12.3807 7.45748 12.2883C6.7995 12.1745 6.31813 11.6058 6.40908 11.0189C7.49667 11.0189 8.58895 11.0189 9.6899 11.0189C9.77487 10.4592 9.69868 9.72551 9.51459 9.27077ZM7.4876 8.98087C8.15774 8.9703 8.57569 9.41856 8.56721 10.1596C7.8466 10.1596 7.1256 10.1596 6.40479 10.1596C6.37727 9.53923 6.88367 8.99045 7.4876 8.98087ZM12.0907 8.02901C11.6353 7.99301 11.1909 8.07119 10.7721 8.27961C9.83011 8.74852 9.81745 10.1972 10.6538 10.6764C10.9032 10.8192 11.1722 10.9276 11.4323 11.052C11.7131 11.1865 12.0035 11.3049 12.2716 11.4612C12.4503 11.5653 12.5254 11.7533 12.4827 11.9693C12.4383 12.1941 12.2776 12.3085 12.0719 12.3286C11.7783 12.3572 11.4773 12.3847 11.1867 12.3504C10.836 12.3091 10.4932 12.2025 10.1341 12.121C10.0871 12.3437 10.0507 12.567 9.99087 12.7836C9.93971 12.9694 9.97841 13.0575 10.1778 13.12C10.8881 13.3426 11.6077 13.3638 12.3333 13.2499C13.0478 13.1374 13.5325 12.7091 13.6122 12.1533C13.7279 11.3451 13.473 10.8556 12.7417 10.4932C12.5739 10.4101 12.3999 10.3397 12.227 10.2679C12.0684 10.202 11.9064 10.145 11.7479 10.0788C11.6617 10.0428 11.5785 9.99886 11.4968 9.95328C11.2811 9.83252 11.1512 9.6577 11.1854 9.39981C11.2138 9.18641 11.3894 9.03792 11.6686 8.98785C12.183 8.89561 12.6772 8.99573 13.1833 9.17284C13.2526 8.86918 13.3195 8.57639 13.4011 8.22008C12.9474 8.15137 12.5211 8.06291 12.0907 8.02901ZM15.8721 8.02901C15.4168 7.99301 14.9723 8.07119 14.5535 8.27961C13.6119 8.74852 13.5991 10.1972 14.4353 10.6764C14.6847 10.8192 14.9536 10.9276 15.2138 11.052C15.4946 11.1865 15.7849 11.3049 16.053 11.4612C16.2318 11.5653 16.307 11.7533 16.2641 11.9693C16.2197 12.1941 16.0592 12.3085 15.8535 12.3286C15.5598 12.3572 15.2588 12.3847 14.9681 12.3504C14.6176 12.3091 14.2747 12.2025 13.9156 12.121C13.8685 12.3437 13.8322 12.567 13.7724 12.7836C13.7213 12.9694 13.7597 13.0575 13.9591 13.12C14.6694 13.3426 15.3891 13.3638 16.1146 13.2499C16.8293 13.1374 17.3138 12.7091 17.3935 12.1533C17.5093 11.3451 17.2545 10.8556 16.523 10.4932C16.3553 10.4101 16.1813 10.3397 16.0083 10.2679C15.85 10.202 15.6877 10.145 15.5292 10.0788C15.4431 10.0428 15.3599 9.99886 15.2781 9.95328C15.0627 9.83252 14.9325 9.6577 14.9668 9.39981C14.9952 9.18641 15.1707 9.03792 15.45 8.98785C15.9643 8.89561 16.4588 8.99573 16.9647 9.17284C17.0341 8.86918 17.1011 8.57639 17.1825 8.22008C16.7289 8.15137 16.3026 8.06291 15.8721 8.02901Z" fill="black"/>
</svg>
