<svg width="20" height="20" viewBox="0 0 20 20" fill="none" xmlns="http://www.w3.org/2000/svg">
<g clip-path="url(#clip0_19_27)">
<path d="M18.125 0H1.875C0.84375 0 0 0.84375 0 1.875V18.125C0 19.1562 0.84375 20 1.875 20H18.125C19.1562 20 20 19.1562 20 18.125V1.875C20 0.84375 19.1562 0 18.125 0ZM7.5 16.25H5V7.5H7.5V16.25ZM6.25 6.25C5.55859 6.25 5 5.69141 5 5C5 4.30859 5.55859 3.75 6.25 3.75C6.94141 3.75 7.5 4.30859 7.5 5C7.5 5.69141 6.94141 6.25 6.25 6.25ZM16.25 16.25H13.75V11.25C13.75 10.5586 13.1914 10 12.5 10C11.8086 10 11.25 10.5586 11.25 11.25V16.25H8.75V7.5H11.25V9.05078C11.7656 8.34375 12.5547 7.5 13.4375 7.5C14.9922 7.5 16.25 8.89844 16.25 10.625V16.25Z" fill="black"/>
</g>
<defs>
<clipPath id="clip0_19_27">
<rect width="20" height="20" fill="white"/>
</clipPath>
</defs>
</svg>
