<svg width="20" height="20" viewBox="0 0 20 20" fill="none" xmlns="http://www.w3.org/2000/svg">
<path d="M10.0346 19.9629C9.75955 19.9629 9.50279 19.8895 9.26437 19.7612L6.82518 18.3123C6.45838 18.1106 6.64178 18.0372 6.75182 18.0005C7.24699 17.8355 7.33869 17.7988 7.85221 17.5054C7.90723 17.4687 7.98059 17.487 8.0356 17.5237L9.90627 18.6424C9.97963 18.6791 10.0713 18.6791 10.1263 18.6424L17.4439 14.4059C17.5173 14.3692 17.554 14.2959 17.554 14.2042V5.74953C17.554 5.65783 17.5173 5.58447 17.4439 5.54779L10.1263 1.32964C10.053 1.29296 9.96129 1.29296 9.90627 1.32964L2.58868 5.54779C2.51532 5.58447 2.47864 5.67617 2.47864 5.74953V14.2042C2.47864 14.2775 2.51532 14.3692 2.58868 14.4059L4.58772 15.5613C5.66977 16.1115 6.34834 15.4696 6.34834 14.8277V6.48313C6.34834 6.37309 6.44004 6.26305 6.56842 6.26305H7.50375C7.61379 6.26305 7.72383 6.35475 7.72383 6.48313V14.8277C7.72383 16.2766 6.93522 17.1202 5.55973 17.1202C5.13791 17.1202 4.8078 17.1202 3.87247 16.6617L1.94679 15.5613C1.46995 15.2862 1.17651 14.7727 1.17651 14.2225V5.76787C1.17651 5.21768 1.46995 4.70416 1.94679 4.42907L9.26437 0.192568C9.72287 -0.0641893 10.3464 -0.0641893 10.8049 0.192568L18.1225 4.42907C18.5993 4.70416 18.8928 5.21768 18.8928 5.76787V14.2225C18.8928 14.7727 18.5993 15.2862 18.1225 15.5613L10.8049 19.7978C10.5665 19.9079 10.2914 19.9629 10.0346 19.9629ZM12.2904 14.1492C9.08097 14.1492 8.42074 12.682 8.42074 11.4349C8.42074 11.3248 8.51244 11.2148 8.64082 11.2148H9.59449C9.70453 11.2148 9.79623 11.2882 9.79623 11.3982C9.94295 12.3702 10.3648 12.847 12.3088 12.847C13.8493 12.847 14.5096 12.4986 14.5096 11.6733C14.5096 11.1965 14.3262 10.848 11.9236 10.6096C9.92461 10.4078 8.6775 9.96769 8.6775 8.37213C8.6775 6.8866 9.92461 6.00629 12.0153 6.00629C14.3628 6.00629 15.5183 6.81324 15.665 8.57386C15.665 8.62888 15.6466 8.6839 15.6099 8.73892C15.5733 8.7756 15.5183 8.81228 15.4632 8.81228H14.5096C14.4179 8.81228 14.3262 8.73892 14.3078 8.64722C14.0877 7.63853 13.5192 7.30842 12.0153 7.30842C10.3281 7.30842 10.1263 7.89529 10.1263 8.33545C10.1263 8.8673 10.3648 9.03236 12.6389 9.3258C14.8947 9.61923 15.9584 10.041 15.9584 11.6183C15.9401 13.2322 14.6196 14.1492 12.2904 14.1492Z" fill="black"/>
</svg>
