<svg width="20" height="20" viewBox="0 0 20 20" fill="none" xmlns="http://www.w3.org/2000/svg">
<mask id="mask0_136_30" style="mask-type:alpha" maskUnits="userSpaceOnUse" x="0" y="0" width="20" height="20">
<rect width="20" height="20" fill="#D9D9D9"/>
</mask>
<g mask="url(#mask0_136_30)">
<path d="M9.99992 15C9.22214 15 8.47909 15.1215 7.77075 15.3645C7.06242 15.6076 6.41659 15.9722 5.83325 16.4583V16.6666H14.1666V16.4583C13.5833 15.9722 12.9374 15.6076 12.2291 15.3645C11.5208 15.1215 10.7777 15 9.99992 15ZM9.99992 13.3333C10.9583 13.3333 11.8541 13.4791 12.6874 13.7708C13.5208 14.0625 14.2916 14.4722 14.9999 15V3.33329H4.99992V15C5.70825 14.4722 6.47909 14.0625 7.31242 13.7708C8.14575 13.4791 9.04159 13.3333 9.99992 13.3333ZM9.99992 9.99996C9.6527 9.99996 9.35756 9.87843 9.1145 9.63538C8.87145 9.39232 8.74992 9.09718 8.74992 8.74996C8.74992 8.40274 8.87145 8.1076 9.1145 7.86454C9.35756 7.62149 9.6527 7.49996 9.99992 7.49996C10.3471 7.49996 10.6423 7.62149 10.8853 7.86454C11.1284 8.1076 11.2499 8.40274 11.2499 8.74996C11.2499 9.09718 11.1284 9.39232 10.8853 9.63538C10.6423 9.87843 10.3471 9.99996 9.99992 9.99996ZM4.99992 18.3333C4.54159 18.3333 4.14922 18.1701 3.82284 17.8437C3.49645 17.5173 3.33325 17.125 3.33325 16.6666V3.33329C3.33325 2.87496 3.49645 2.4826 3.82284 2.15621C4.14922 1.82982 4.54159 1.66663 4.99992 1.66663H14.9999C15.4583 1.66663 15.8506 1.82982 16.177 2.15621C16.5034 2.4826 16.6666 2.87496 16.6666 3.33329V16.6666C16.6666 17.125 16.5034 17.5173 16.177 17.8437C15.8506 18.1701 15.4583 18.3333 14.9999 18.3333H4.99992ZM9.99992 11.6666C10.8055 11.6666 11.493 11.3819 12.0624 10.8125C12.6319 10.243 12.9166 9.55551 12.9166 8.74996C12.9166 7.9444 12.6319 7.2569 12.0624 6.68746C11.493 6.11801 10.8055 5.83329 9.99992 5.83329C9.19436 5.83329 8.50686 6.11801 7.93742 6.68746C7.36797 7.2569 7.08325 7.9444 7.08325 8.74996C7.08325 9.55551 7.36797 10.243 7.93742 10.8125C8.50686 11.3819 9.19436 11.6666 9.99992 11.6666Z" fill="black"/>
</g>
</svg>
