<svg width="20" height="20" viewBox="0 0 20 20" fill="none" xmlns="http://www.w3.org/2000/svg">
<path d="M9.99992 10C9.08325 10 8.29853 9.67365 7.64575 9.02087C6.99297 8.3681 6.66659 7.58337 6.66659 6.66671C6.66659 5.75004 6.99297 4.96532 7.64575 4.31254C8.29853 3.65976 9.08325 3.33337 9.99992 3.33337C10.9166 3.33337 11.7013 3.65976 12.3541 4.31254C13.0069 4.96532 13.3333 5.75004 13.3333 6.66671C13.3333 7.58337 13.0069 8.3681 12.3541 9.02087C11.7013 9.67365 10.9166 10 9.99992 10ZM3.33325 16.6667V14.3334C3.33325 13.8612 3.45492 13.4273 3.69825 13.0317C3.94159 12.6362 4.26436 12.3339 4.66659 12.125C5.5277 11.6945 6.4027 11.3717 7.29159 11.1567C8.18047 10.9417 9.08325 10.8339 9.99992 10.8334C10.9166 10.8328 11.8194 10.9406 12.7083 11.1567C13.5971 11.3728 14.4721 11.6956 15.3333 12.125C15.736 12.3334 16.0591 12.6356 16.3024 13.0317C16.5458 13.4278 16.6671 13.8617 16.6666 14.3334V16.6667H3.33325Z" fill="black"/>
</svg>
