<svg width="20" height="20" viewBox="0 0 20 20" fill="none" xmlns="http://www.w3.org/2000/svg">
<g clip-path="url(#clip0_3002_18)">
<path d="M19.9967 6.21836C19.95 6.91586 19.7825 7.99753 19.4 9.42669C18.5709 12.5225 15.8417 18.4884 10.7167 17.1159C5.59169 15.7409 6.21085 9.21003 7.04002 6.11503C7.42335 4.68503 7.81835 3.66503 8.12752 3.03669C8.47752 2.32586 8.83252 2.79586 9.64002 3.47253C10.21 3.95003 11.6484 4.96503 13.8159 5.54586C15.9834 6.12669 17.7375 5.96753 18.4684 5.83919C19.5059 5.65669 20.0492 5.42753 19.9967 6.21836ZM11.8242 9.43753C11.8242 9.43753 11.7184 7.92169 10.3467 7.53253C8.97669 7.14336 8.16919 8.39919 8.16919 8.39919L11.8242 9.43753ZM15.2059 13.22L8.73169 11.41C8.73169 11.41 9.10335 13.3317 11.5134 14.0375C13.8984 14.7342 15.2059 13.2209 15.2059 13.22ZM17.4567 11.1284C17.4567 11.1284 17.3484 9.61336 15.9792 9.22336C14.6092 8.83253 13.8025 10.0884 13.8025 10.0884L17.4567 11.1284ZM7.14169 15.1917C3.18419 16.2575 1.09085 11.6717 0.457521 9.29169C0.164187 8.19253 0.0366874 7.36003 0.00252078 6.82336C-0.0366459 6.21503 0.381687 6.39003 1.18169 6.52836C1.74585 6.62669 3.09835 6.74586 4.77169 6.29503C5.46953 6.10754 6.14342 5.84022 6.78002 5.49836C6.73169 5.66253 6.68502 5.83169 6.63835 6.00669C6.27752 7.35503 5.94919 9.38586 6.11169 11.3617C4.46502 11.9717 4.22252 13.3809 4.22252 13.3809L6.32585 12.785C6.51502 13.62 6.82585 14.4409 7.28419 15.15C7.2369 15.1644 7.18939 15.1788 7.14169 15.1917ZM3.65169 9.94336C4.70585 9.66586 4.78752 8.58419 4.78752 8.58419L1.97585 9.32419C1.97585 9.32419 2.59752 10.2209 3.65169 9.94336Z" fill="black"/>
</g>
<defs>
<clipPath id="clip0_3002_18">
<rect width="20" height="20" fill="white"/>
</clipPath>
</defs>
</svg>
