<svg width="20" height="20" viewBox="0 0 20 20" fill="none" xmlns="http://www.w3.org/2000/svg">
<g clip-path="url(#clip0_23_166)">
<path d="M10 8.2175C9.01557 8.2175 8.21752 9.01555 8.21752 10C8.21752 10.9845 9.01557 11.7825 10 11.7825C10.9845 11.7825 11.7825 10.9845 11.7825 10C11.7825 9.01555 10.9845 8.2175 10 8.2175ZM5.00668 13.5458L4.61334 13.4458C1.68168 12.705 0 11.4475 0 9.99668C0 8.54586 1.68166 7.28834 4.61334 6.54752L5.00668 6.44836L5.11752 6.83836C5.45789 8.00114 5.84422 8.99006 6.30443 9.93643L6.25336 9.82002L6.33752 9.99752L6.25336 10.175C5.84305 11.0059 5.45668 11.9949 5.15254 13.0192L5.11752 13.1567L5.00668 13.5458ZM4.43086 7.45834C2.20252 8.08418 0.835019 9.04168 0.835019 9.99668C0.835019 10.9508 2.20252 11.9083 4.43086 12.535C4.75068 11.5226 5.08469 10.6821 5.46971 9.87055L5.41586 9.9967C5.08387 9.31035 4.74984 8.46985 4.47145 7.6044L4.43086 7.45836V7.45834ZM14.9934 13.5458L14.8825 13.155C14.5427 11.9933 14.1561 11.0046 13.6951 10.0589L13.7459 10.1742L13.6617 9.99666L13.7459 9.81916C14.1558 8.98873 14.5424 7.99979 14.8472 6.97561L14.8825 6.8375L14.9934 6.4475L15.3875 6.54666C18.3184 7.2875 20 8.545 20 9.99666C20 11.4483 18.3184 12.705 15.3875 13.4458L14.9934 13.5458ZM14.5842 9.99666C14.9842 10.8625 15.315 11.7133 15.5692 12.535C17.7983 11.9083 19.165 10.9508 19.165 9.99666C19.165 9.04166 17.7975 8.085 15.5692 7.45832C15.25 8.46994 14.916 9.31045 14.5307 10.1218L14.5842 9.99664V9.99666ZM4.42502 7.45416L4.31418 7.065C3.49002 4.16 3.74002 2.07834 5.00002 1.35166C6.23586 0.638323 8.22002 1.48082 10.2992 3.615L10.5825 3.90584L10.2992 4.19668C9.58285 4.94049 8.91971 5.7478 8.32318 6.60492L8.28084 6.66918L8.16834 6.83002L7.9725 6.84668C6.80082 6.94084 5.72498 7.12094 4.68219 7.38412L4.81832 7.35502L4.42502 7.45416ZM6.00502 1.92916C5.78168 1.92916 5.58418 1.9775 5.41752 2.07332C4.58918 2.55082 4.44252 4.21082 5.01336 6.45082C5.76982 6.27272 6.68883 6.12518 7.6257 6.03938L7.70754 6.03332C8.26633 5.24326 8.82758 4.55186 9.43029 3.89934L9.41754 3.91332C8.11754 2.64748 6.8867 1.92916 6.00504 1.92916H6.00502ZM13.9959 18.8975C13.995 18.8975 13.995 18.8975 13.9959 18.8975C12.8084 18.8975 11.2834 18.0033 9.70086 16.3783L9.41752 16.0875L9.70086 15.7967C10.4169 15.0527 11.0798 14.2451 11.676 13.3877L11.7184 13.3233L11.8309 13.1625L12.0259 13.1458C13.1978 13.0522 14.2743 12.8724 15.3176 12.6093L15.1817 12.6383L15.575 12.5392L15.6867 12.9292C16.5092 15.8325 16.26 17.915 15 18.6408C14.7193 18.8024 14.3827 18.8977 14.0238 18.8977C14.014 18.8977 14.0042 18.8976 13.9944 18.8975L13.9959 18.8975ZM10.5825 16.08C11.8825 17.3458 13.1134 18.0642 13.995 18.0642H13.9959C14.2184 18.0642 14.4167 18.0158 14.5825 17.92C15.4109 17.4425 15.5584 15.7817 14.9867 13.5417C14.2295 13.7201 13.3102 13.8677 12.3729 13.9532L12.2917 13.9592C11.7337 14.7497 11.1726 15.4413 10.5698 16.0939L10.5825 16.08ZM15.575 7.45416L15.1817 7.355C14.2737 7.12006 13.1972 6.93992 12.095 6.85115L12.0259 6.84668L11.8309 6.83002L11.7184 6.66918C11.0803 5.74764 10.4174 4.9403 9.69506 4.19063L9.70086 4.19668L9.41752 3.90584L9.70086 3.615C11.7792 1.48166 13.7625 0.639163 15 1.35166C16.26 2.07832 16.51 4.16 15.6867 7.06416L15.575 7.45416ZM12.2917 6.03334C13.2433 6.12 14.1475 6.26084 14.9867 6.45084C15.5583 4.21084 15.4108 2.55084 14.5825 2.07334C13.7592 1.5975 12.2117 2.32668 10.5825 3.91334C11.1721 4.55182 11.7331 5.24321 12.2485 5.96924L12.2917 6.03334ZM6.00502 18.8975C5.99645 18.8976 5.98635 18.8977 5.97621 18.8977C5.61736 18.8977 5.28076 18.8024 4.99035 18.6357L5.00002 18.6408C3.74002 17.915 3.49002 15.8333 4.31418 12.9292L4.42418 12.5392L4.81752 12.6383C5.78002 12.8808 6.84168 13.0517 7.97168 13.1458L8.16752 13.1625L8.27918 13.3233C8.91822 14.245 9.58135 15.0526 10.3035 15.8029L10.2975 15.7967L10.5809 16.0875L10.2975 16.3783C8.71586 18.0033 7.19086 18.8975 6.00502 18.8975ZM5.01336 13.5417C4.4417 15.7817 4.5892 17.4425 5.41752 17.92C6.24002 18.3892 7.78668 17.6658 9.41752 16.08C8.82805 15.4413 8.2668 14.7496 7.75092 14.0235L7.70752 13.9592C6.68943 13.8678 5.77041 13.7202 4.8735 13.5147L5.01336 13.5417ZM10 14.065C9.31418 14.065 8.60918 14.035 7.90336 13.9767L7.70752 13.96L7.59502 13.7992C7.25481 13.3194 6.88299 12.7422 6.53459 12.1496L6.47002 12.0308C6.18723 11.5571 5.86328 10.9486 5.56408 10.326L5.49836 10.1742L5.41502 9.99668L5.49836 9.81918C5.86313 9.04496 6.18707 8.43645 6.53453 7.84336L6.47002 7.9625C6.81502 7.36584 7.19418 6.77084 7.59502 6.19416L7.70752 6.03332L7.90336 6.01666C8.53156 5.96014 9.26225 5.92791 10.0004 5.92791C10.7387 5.92791 11.4694 5.96014 12.1912 6.02326L12.0975 6.01666L12.2925 6.03332L12.4042 6.19416C13.1396 7.23533 13.8382 8.42362 14.4367 9.6691L14.5017 9.81916L14.5859 9.99666L14.5017 10.1742C13.8405 11.5689 13.1418 12.7573 12.3522 13.877L12.4042 13.7992L12.2925 13.96L12.0975 13.9767C11.3917 14.035 10.6859 14.065 10 14.065ZM8.16918 13.1617C9.40252 13.2542 10.5975 13.2542 11.8317 13.1617C12.4591 12.2583 13.0681 11.2215 13.5986 10.1391L13.6617 9.99666C13.0699 8.77289 12.4606 7.73596 11.7791 6.7528L11.8308 6.83166C11.2828 6.78748 10.6443 6.76229 10 6.76229C9.35566 6.76229 8.71725 6.78748 8.08562 6.83692L8.16916 6.83166C7.53889 7.73619 6.92953 8.77315 6.40022 9.85637L6.33832 9.99666C6.93268 11.2217 7.54193 12.2585 8.22205 13.2426L8.16914 13.1617H8.16918Z" fill="black"/>
</g>
<defs>
<clipPath id="clip0_23_166">
<rect width="20" height="20" fill="white"/>
</clipPath>
</defs>
</svg>
