<svg width="20" height="20" viewBox="0 0 20 20" fill="none" xmlns="http://www.w3.org/2000/svg">
<path d="M3.33329 16.6667C2.87496 16.6667 2.48274 16.5037 2.15663 16.1775C1.83051 15.8514 1.66718 15.4589 1.66663 15V5.00004C1.66663 4.54171 1.82996 4.14948 2.15663 3.82337C2.48329 3.49726 2.87551 3.33393 3.33329 3.33337H16.6666C17.125 3.33337 17.5175 3.49671 17.8441 3.82337C18.1708 4.15004 18.3338 4.54226 18.3333 5.00004V15C18.3333 15.4584 18.1702 15.8509 17.8441 16.1775C17.518 16.5042 17.1255 16.6673 16.6666 16.6667H3.33329ZM14.5833 7.22921H16.6666V5.00004H14.5833V7.22921ZM14.5833 11.1042H16.6666V8.89587H14.5833V11.1042ZM3.33329 15H12.9166V5.00004H3.33329V15ZM14.5833 15H16.6666V12.7709H14.5833V15Z" fill="black"/>
</svg>
