<svg width="20" height="20" viewBox="0 0 20 20" fill="none" xmlns="http://www.w3.org/2000/svg">
<g clip-path="url(#clip0_21_81)">
<path d="M4.375 0C2.30391 0 0.625 1.95875 0.625 4.375C0.625 6.44383 1.8559 8.17707 3.50988 8.63277L2.88902 18.7524C2.84695 19.4386 3.375 20 4.0625 20H4.6875C5.375 20 5.90305 19.4386 5.86098 18.7524L5.24012 8.63277C6.8941 8.17707 8.125 6.44383 8.125 4.375C8.125 1.95875 6.44609 0 4.375 0ZM16.9792 0L15.9375 6.25H15.1562L14.6354 0H14.1146L13.5938 6.25H12.8125L11.7708 0H11.25V8.125C11.25 8.47016 11.5298 8.75 11.875 8.75H13.5027L12.889 18.7524C12.847 19.4386 13.375 20 14.0625 20H14.6875C15.375 20 15.903 19.4386 15.861 18.7524L15.2473 8.75H16.875C17.2202 8.75 17.5 8.47016 17.5 8.125V0H16.9792Z" fill="black"/>
</g>
<defs>
<clipPath id="clip0_21_81">
<rect width="20" height="20" fill="white"/>
</clipPath>
</defs>
</svg>
