<svg width="20" height="20" viewBox="0 0 20 20" fill="none" xmlns="http://www.w3.org/2000/svg">
<g clip-path="url(#clip0_31_99)">
<path d="M10 0C15.5246 0 20 4.47545 20 10C20 15.4911 15.5469 20 10 20C4.46429 20 0 15.5022 0 10C0 4.47545 4.47545 0 10 0ZM16.9085 15.0781C17.9464 13.6496 18.5714 11.8973 18.5714 10C18.5714 5.27902 14.721 1.42857 10 1.42857C5.27902 1.42857 1.42857 5.27902 1.42857 10C1.42857 11.8973 2.05357 13.6496 3.09152 15.0781C3.4933 13.0804 4.46429 11.4286 6.5067 11.4286C7.41071 12.3103 8.63839 12.8571 10 12.8571C11.3616 12.8571 12.5893 12.3103 13.4933 11.4286C15.5357 11.4286 16.5067 13.0804 16.9085 15.0781ZM14.2857 7.85714C14.2857 5.49107 12.3661 3.57143 10 3.57143C7.63393 3.57143 5.71429 5.49107 5.71429 7.85714C5.71429 10.2232 7.63393 12.1429 10 12.1429C12.3661 12.1429 14.2857 10.2232 14.2857 7.85714Z" fill="black"/>
</g>
<defs>
<clipPath id="clip0_31_99">
<rect width="20" height="20" fill="white"/>
</clipPath>
</defs>
</svg>
