<svg width="20" height="20" viewBox="0 0 20 20" fill="none" xmlns="http://www.w3.org/2000/svg">
<path d="M17.5131 15.1002L10.2926 19.1667V15.9994L14.7914 13.5355L17.5131 15.1002ZM18.007 14.6548V6.15039L15.3647 7.66874V13.1348L18.007 14.6548ZM2.43814 15.1002L9.65872 19.1667V15.9994L5.1599 13.5355L2.43814 15.1002ZM1.94421 14.6548V6.15039L4.58646 7.66874V13.1348L1.94421 14.6548ZM2.25339 5.60016L9.65872 1.42883V4.49116L4.87839 7.10983L2.25339 5.60016ZM17.698 5.60016L10.2926 1.42883V4.49116L15.0729 7.10991L17.698 5.60016ZM9.6588 15.279L5.22031 12.8494V8.03498L9.65865 10.5866L9.6588 15.279ZM10.2926 15.279L14.7309 12.8494V8.03498L10.2926 10.5866V15.279ZM5.52089 7.47782L9.97648 5.03782L14.4321 7.47782L9.97648 10.0398L5.52089 7.47782Z" fill="black"/>
</svg>
