<svg xmlns="http://www.w3.org/2000/svg" width="256" height="256" viewBox="0 0 100 100"><rect width="100" height="100" rx="0" fill="#262927"></rect><path fill="#25c750" d="M31.19 62.83L31.19 18.01L42.27 18.01L42.27 62.88Q42.27 72.06 36.53 77.47Q30.80 82.87 21.39 82.87L21.39 82.87Q11.37 82.87 5.92 77.82Q0.47 72.76 0.47 63.75L0.47 63.75L11.55 63.75Q11.55 68.85 14.07 71.42Q16.60 73.99 21.39 73.99L21.39 73.99Q25.87 73.99 28.53 71.03Q31.19 68.06 31.19 62.83L31.19 62.83ZM88.41 65.51L88.41 65.51Q88.41 61.29 85.44 59.01Q82.48 56.72 74.74 54.39Q67.01 52.07 62.44 49.21L62.44 49.21Q53.69 43.72 53.69 34.88L53.69 34.88Q53.69 27.15 60.00 22.14Q66.30 17.13 76.37 17.13L76.37 17.13Q83.05 17.13 88.28 19.59Q93.51 22.05 96.49 26.60Q99.48 31.15 99.48 36.68L99.48 36.68L88.41 36.68Q88.41 31.67 85.27 28.84Q82.12 26.01 76.28 26.01L76.28 26.01Q70.83 26.01 67.82 28.33Q64.81 30.66 64.81 34.84L64.81 34.84Q64.81 38.35 68.06 40.71Q71.31 43.06 78.78 45.28Q86.25 47.50 90.78 50.33Q95.31 53.16 97.42 56.83Q99.53 60.50 99.53 65.42L99.53 65.42Q99.53 73.42 93.40 78.15Q87.27 82.87 76.76 82.87L76.76 82.87Q69.82 82.87 64.00 80.30Q58.17 77.73 54.94 73.20Q51.71 68.68 51.71 62.66L51.71 62.66L62.83 62.66Q62.83 68.11 66.44 71.09Q70.04 74.08 76.76 74.08L76.76 74.08Q82.56 74.08 85.49 71.73Q88.41 69.38 88.41 65.51Z"></path></svg>