<svg xmlns="http://www.w3.org/2000/svg" width="256" height="256" viewBox="0 0 100 100"><rect width="100" height="100" rx="0" fill="#1e1c1c"></rect><path fill="#ff9d9d" d="M20.55 83.90L20.55 83.90Q13.65 83.90 8.90 81.10Q4.15 78.30 1.05 72.80L1.05 72.80L9.05 66.90Q11.05 70.50 13.65 72.15Q16.25 73.80 19.25 73.80L19.25 73.80Q23.85 73.80 26.15 71Q28.45 68.20 28.45 61.20L28.45 61.20L28.45 17.30L40.05 17.30L40.05 62.20Q40.05 66.70 38.95 70.65Q37.85 74.60 35.45 77.55Q33.05 80.50 29.35 82.20Q25.65 83.90 20.55 83.90ZM75.45 83.90L75.45 83.90Q68.85 83.90 62.70 81.40Q56.55 78.90 51.85 74.30L51.85 74.30L58.65 66.40Q62.15 69.70 66.65 71.75Q71.15 73.80 75.65 73.80L75.65 73.80Q81.25 73.80 84.15 71.50Q87.05 69.20 87.05 65.40L87.05 65.40Q87.05 63.40 86.30 62Q85.55 60.60 84.20 59.55Q82.85 58.50 81 57.60Q79.15 56.70 76.95 55.80L76.95 55.80L67.95 51.90Q65.55 50.90 63.20 49.40Q60.85 47.90 58.95 45.80Q57.05 43.70 55.90 40.90Q54.75 38.10 54.75 34.50L54.75 34.50Q54.75 30.60 56.40 27.25Q58.05 23.90 60.95 21.40Q63.85 18.90 67.90 17.50Q71.95 16.10 76.75 16.10L76.75 16.10Q82.45 16.10 87.75 18.35Q93.05 20.60 96.85 24.40L96.85 24.40L90.95 31.80Q87.75 29.20 84.35 27.70Q80.95 26.20 76.75 26.20L76.75 26.20Q72.05 26.20 69.25 28.25Q66.45 30.30 66.45 33.90L66.45 33.90Q66.45 35.80 67.30 37.15Q68.15 38.50 69.60 39.55Q71.05 40.60 72.95 41.45Q74.85 42.30 76.85 43.10L76.85 43.10L85.75 46.80Q88.65 48 91.05 49.60Q93.45 51.20 95.20 53.30Q96.95 55.40 97.95 58.15Q98.95 60.90 98.95 64.50L98.95 64.50Q98.95 68.50 97.35 72Q95.75 75.50 92.70 78.15Q89.65 80.80 85.30 82.35Q80.95 83.90 75.45 83.90Z"></path></svg>