<svg xmlns="http://www.w3.org/2000/svg" xmlns:xlink="http://www.w3.org/1999/xlink"><defs><style>
    .sprite-symbol-usage {display: none;}
    .sprite-symbol-usage:target {display: inline;}
  </style><symbol viewBox="0 0 20 20" id="arrow-down"><path d="M10.0001 12.4792C9.88897 12.4792 9.7848 12.462 9.68758 12.4275C9.59036 12.3931 9.50008 12.3339 9.41675 12.25L5.58341 8.41671C5.43064 8.26393 5.35425 8.06948 5.35425 7.83337C5.35425 7.59726 5.43064 7.40282 5.58341 7.25004C5.73619 7.09726 5.93064 7.02087 6.16675 7.02087C6.40286 7.02087 6.5973 7.09726 6.75008 7.25004L10.0001 10.5L13.2501 7.25004C13.4029 7.09726 13.5973 7.02087 13.8334 7.02087C14.0695 7.02087 14.264 7.09726 14.4167 7.25004C14.5695 7.40282 14.6459 7.59726 14.6459 7.83337C14.6459 8.06948 14.5695 8.26393 14.4167 8.41671L10.5834 12.25C10.5001 12.3334 10.4098 12.3925 10.3126 12.4275C10.2154 12.4625 10.1112 12.4798 10.0001 12.4792Z" /></symbol><symbol viewBox="0 0 20 20" id="briefcase"><path d="M18.75 5H13.75V3.75C13.75 3.0625 13.1875 2.5 12.5 2.5H7.5C6.81242 2.5 6.25 3.0625 6.25 3.75V5H1.25C0.5625 5 0 5.5625 0 6.25V17.5C0 18.1875 0.562422 18.75 1.25 18.75H18.75C19.4375 18.75 20 18.1875 20 17.5V6.25C20 5.5625 19.4375 5 18.75 5ZM7.5 3.75227C7.50066 3.75148 7.50145 3.75066 7.50223 3.75H12.4978C12.4986 3.75066 12.4994 3.75148 12.5001 3.75227V5H7.5V3.75227ZM18.75 10H16.25V11.875C16.25 12.2188 15.9688 12.5 15.625 12.5H14.375C14.0312 12.5 13.75 12.2188 13.75 11.875V10H6.25V11.875C6.25 12.2188 5.96875 12.5 5.625 12.5H4.375C4.03121 12.5 3.75 12.2188 3.75 11.875V10H1.25V8.75H18.75V10Z" /></symbol><symbol viewBox="0 0 20 20" id="close"><path d="M9.99992 11.1667L5.91659 15.25C5.76381 15.4028 5.56936 15.4792 5.33325 15.4792C5.09714 15.4792 4.9027 15.4028 4.74992 15.25C4.59714 15.0973 4.52075 14.9028 4.52075 14.6667C4.52075 14.4306 4.59714 14.2362 4.74992 14.0834L8.83325 10L4.74992 5.91671C4.59714 5.76393 4.52075 5.56949 4.52075 5.33337C4.52075 5.09726 4.59714 4.90282 4.74992 4.75004C4.9027 4.59726 5.09714 4.52087 5.33325 4.52087C5.56936 4.52087 5.76381 4.59726 5.91659 4.75004L9.99992 8.83337L14.0833 4.75004C14.236 4.59726 14.4305 4.52087 14.6666 4.52087C14.9027 4.52087 15.0971 4.59726 15.2499 4.75004C15.4027 4.90282 15.4791 5.09726 15.4791 5.33337C15.4791 5.56949 15.4027 5.76393 15.2499 5.91671L11.1666 10L15.2499 14.0834C15.4027 14.2362 15.4791 14.4306 15.4791 14.6667C15.4791 14.9028 15.4027 15.0973 15.2499 15.25C15.0971 15.4028 14.9027 15.4792 14.6666 15.4792C14.4305 15.4792 14.236 15.4028 14.0833 15.25L9.99992 11.1667Z" /></symbol><symbol viewBox="0 0 20 20" id="css"><path d="M2.5 1.66663L3.815 16.5283L10 18.3333L16.2233 16.5291L17.5 1.66663H2.5ZM13.5833 13.935L10.0058 14.9383H10L6.41917 13.935L6.17167 11.2958H7.92833L8.05333 12.5675L9.99917 13.1L11.9492 12.5666L12.1533 10.025H6.095L5.93917 8.35329H12.3058L12.4508 6.68163H5.77L5.62333 5.00996H14.3783L13.5833 13.935Z" /></symbol><symbol viewBox="0 0 20 20" id="database"><g clip-path="url(#database_clip0_23_191)"><path d="M10 0C4.47715 0 0 1.3991 0 3.125V5.625C0 7.3509 4.47715 8.75 10 8.75C15.5229 8.75 20 7.3509 20 5.625V3.125C20 1.3991 15.5229 0 10 0Z" /><path d="M10 10.625C4.47715 10.625 0 9.2259 0 7.5V11.25C0 12.9759 4.47715 14.375 10 14.375C15.5229 14.375 20 12.9759 20 11.25V7.5C20 9.2259 15.5229 10.625 10 10.625Z" /><path d="M10 16.25C4.47715 16.25 0 14.8509 0 13.125V16.875C0 18.6009 4.47715 20 10 20C15.5229 20 20 18.6009 20 16.875V13.125C20 14.8509 15.5229 16.25 10 16.25Z" /></g><defs></defs></symbol><clipPath id="database_clip0_23_191"><rect width="20" height="20" fill="white" /></clipPath><symbol viewBox="0 0 20 20" id="embed"><path d="M13 13.5L14.5 15L19.5 10L14.5 5L13 6.5L16.5 10L13 13.5Z" /><path d="M7 6.5L5.5 5L0.5 10L5.5 15L7 13.5L3.5 10L7 6.5Z" /><path d="M10.9578 4.35187L12.0432 4.64787L9.04345 15.6483L7.95801 15.3523L10.9578 4.35187H10.9578Z" /></symbol><symbol viewBox="0 0 20 20" id="figma"><g clip-path="url(#figma_clip0_23_252)"><path d="M10 9.99999C10 8.15903 11.4924 6.66665 13.3334 6.66665C15.1743 6.66665 16.6667 8.15903 16.6667 9.99999C16.6667 11.8409 15.1743 13.3333 13.3334 13.3333C11.4924 13.3333 10 11.8409 10 9.99999ZM3.33337 16.6666C3.33337 14.8257 4.82576 13.3333 6.66671 13.3333H10.0001V16.6666C10.0001 18.5076 8.50767 20 6.66671 20C4.82576 20 3.33337 18.5076 3.33337 16.6666ZM10 -1.09863e-05V6.66665H13.3334C15.1743 6.66665 16.6667 5.17427 16.6667 3.33331C16.6667 1.49235 15.1743 -3.05176e-05 13.3334 -3.05176e-05L10 -1.09863e-05ZM3.33337 3.33333C3.33337 5.17429 4.82576 6.66667 6.66671 6.66667H10.0001V8.54492e-06H6.66671C4.82576 8.54492e-06 3.33337 1.49237 3.33337 3.33333ZM3.33337 9.99999C3.33337 11.8409 4.82576 13.3333 6.66671 13.3333H10.0001V6.66667H6.66671C4.82576 6.66667 3.33337 8.15903 3.33337 9.99999Z" /></g><defs></defs></symbol><clipPath id="figma_clip0_23_252"><rect width="20" height="20" fill="white" /></clipPath><symbol viewBox="0 0 20 20" id="gamepad"><path d="M3.7917 15.8333C3.08337 15.8333 2.53475 15.5866 2.14587 15.0933C1.75698 14.6 1.61114 13.9994 1.70837 13.2916L2.58337 7.04163C2.70837 6.20829 3.08003 5.52079 3.69837 4.97913C4.3167 4.43746 5.04226 4.16663 5.87503 4.16663H14.125C14.9584 4.16663 15.6842 4.43746 16.3025 4.97913C16.9209 5.52079 17.2923 6.20829 17.4167 7.04163L18.2917 13.2916C18.3889 14 18.2431 14.6008 17.8542 15.0941C17.4653 15.5875 16.9167 15.8338 16.2084 15.8333C15.9167 15.8333 15.6459 15.7813 15.3959 15.6775C15.1459 15.5736 14.9167 15.4172 14.7084 15.2083L12.8334 13.3333H7.1667L5.2917 15.2083C5.08337 15.4166 4.8542 15.573 4.6042 15.6775C4.3542 15.7819 4.08337 15.8338 3.7917 15.8333ZM4.12503 14.0416L6.50003 11.6666H13.5L15.875 14.0416C15.9028 14.0694 16.0139 14.1111 16.2084 14.1666C16.3611 14.1666 16.4828 14.1216 16.5734 14.0316C16.6639 13.9416 16.695 13.82 16.6667 13.6666L15.75 7.24996C15.6945 6.84718 15.5139 6.51051 15.2084 6.23996C14.9028 5.9694 14.5417 5.83385 14.125 5.83329H5.87503C5.45837 5.83329 5.09726 5.96885 4.7917 6.23996C4.48614 6.51107 4.30559 6.84774 4.25003 7.24996L3.33337 13.6666C3.30559 13.8194 3.33698 13.9411 3.42753 14.0316C3.51809 14.1222 3.63948 14.1672 3.7917 14.1666C3.81948 14.1666 3.93059 14.125 4.12503 14.0416ZM14.1667 10.8333C14.4028 10.8333 14.6009 10.7536 14.7609 10.5941C14.9209 10.4347 15.0006 10.2366 15 9.99996C14.9995 9.76329 14.9195 9.56552 14.76 9.40663C14.6006 9.24774 14.4028 9.16774 14.1667 9.16663C13.9306 9.16552 13.7328 9.24552 13.5734 9.40663C13.4139 9.56774 13.3339 9.76552 13.3334 9.99996C13.3328 10.2344 13.4128 10.4325 13.5734 10.5941C13.7339 10.7558 13.9317 10.8355 14.1667 10.8333ZM12.5 8.33329C12.7361 8.33329 12.9342 8.25329 13.0942 8.09329C13.2542 7.93329 13.3339 7.73552 13.3334 7.49996C13.3328 7.2644 13.2528 7.06663 13.0934 6.90663C12.9339 6.74663 12.7361 6.66663 12.5 6.66663C12.2639 6.66663 12.0661 6.74663 11.9067 6.90663C11.7473 7.06663 11.6673 7.2644 11.6667 7.49996C11.6661 7.73552 11.7461 7.93357 11.9067 8.09413C12.0673 8.25468 12.265 8.3344 12.5 8.33329ZM6.45837 10.8333H7.70837V9.37496H9.1667V8.12496H7.70837V6.66663H6.45837V8.12496H5.00003V9.37496H6.45837V10.8333Z" /></symbol><symbol viewBox="0 0 20 20" id="git"><g clip-path="url(#git_clip0_19_31)"><path d="M19.6229 9.10926L10.8905 0.377225C10.3879 -0.125782 9.57227 -0.125782 9.06891 0.377225L7.03996 2.40605L8.56672 3.93281C8.81148 3.8157 9.08555 3.75 9.375 3.75C10.4105 3.75 11.25 4.58945 11.25 5.625C11.25 5.91445 11.1843 6.18855 11.0671 6.43332L13.5667 8.93281C13.8114 8.8157 14.0855 8.75 14.375 8.75C15.4105 8.75 16.25 9.58945 16.25 10.625C16.25 11.6605 15.4105 12.5 14.375 12.5C13.3395 12.5 12.5 11.6605 12.5 10.625C12.5 10.3355 12.5657 10.0614 12.6829 9.81668L10.1833 7.31719C10.1239 7.34562 10.0627 7.37074 10 7.39289V12.6071C10.7282 12.8646 11.25 13.5586 11.25 14.375C11.25 15.4105 10.4106 16.25 9.37504 16.25C8.33949 16.25 7.50004 15.4105 7.50004 14.375C7.50004 13.5587 8.02188 12.8646 8.75004 12.6071V7.39289C8.02188 7.13547 7.50004 6.44133 7.50004 5.625C7.50004 5.33555 7.56574 5.06148 7.68285 4.81672L6.15609 3.28996L0.376953 9.06879C-0.125977 9.57222 -0.125977 10.3878 0.376953 10.8908L9.10977 19.6229C9.61246 20.1258 10.4278 20.1258 10.9314 19.6229L19.6229 10.9313C20.126 10.4282 20.126 9.61219 19.6229 9.10926Z" /></g><defs></defs></symbol><clipPath id="git_clip0_19_31"><rect width="20" height="20" fill="white" /></clipPath><symbol viewBox="0 0 20 20" id="github"><g clip-path="url(#github_clip0_19_34)"><path d="M10.0002 0.246918C4.47793 0.246918 0 4.72383 0 10.2469C0 14.6651 2.86531 18.4135 6.83859 19.7359C7.33832 19.8284 7.52203 19.5189 7.52203 19.2548C7.52203 19.0164 7.51266 18.2286 7.50844 17.393C4.72625 17.998 4.13922 16.2131 4.13922 16.2131C3.68449 15.0573 3.02891 14.7499 3.02891 14.7499C2.12164 14.1292 3.09746 14.142 3.09746 14.142C4.10137 14.2125 4.6302 15.1726 4.6302 15.1726C5.52223 16.7013 6.96957 16.2593 7.54043 16.0038C7.63004 15.3576 7.8891 14.9163 8.17531 14.6666C5.95402 14.4138 3.61914 13.5563 3.61914 9.72457C3.61914 8.63282 4.00984 7.74071 4.64961 7.04043C4.54578 6.78848 4.20324 5.77145 4.74633 4.39395C4.74633 4.39395 5.58629 4.12536 7.49711 5.41914C8.29469 5.1975 9.15016 5.08641 10.0001 5.08254C10.8498 5.08641 11.7059 5.1975 12.5051 5.41914C14.414 4.12532 15.2523 4.39395 15.2523 4.39395C15.7967 5.77145 15.4545 6.78848 15.3507 7.04043C15.9917 7.74075 16.3798 8.63286 16.3798 9.72457C16.3798 13.5655 14.0404 14.4111 11.8136 14.6586C12.1723 14.969 12.4918 15.5775 12.4918 16.5104C12.4918 17.8485 12.4802 18.9254 12.4802 19.2547C12.4802 19.5209 12.6603 19.8327 13.1671 19.7345C17.1383 18.4108 20 14.6637 20 10.2469C20 4.72383 15.5228 0.246918 10.0002 0.246918Z" /></g><defs></defs></symbol><clipPath id="github_clip0_19_34"><rect width="20" height="20" fill="white" /></clipPath><symbol viewBox="0 0 20 20" id="globe"><path d="M9.99996 18.3333C8.84718 18.3333 7.76385 18.1144 6.74996 17.6766C5.73607 17.2388 4.85413 16.6452 4.10413 15.8958C3.35413 15.1463 2.76052 14.2644 2.32329 13.25C1.88607 12.2355 1.66718 11.1522 1.66663 9.99996C1.66607 8.84774 1.88496 7.7644 2.32329 6.74996C2.76163 5.73552 3.35524 4.85357 4.10413 4.10413C4.85302 3.35468 5.73496 2.76107 6.74996 2.32329C7.76496 1.88551 8.84829 1.66663 9.99996 1.66663C11.1516 1.66663 12.235 1.88551 13.25 2.32329C14.265 2.76107 15.1469 3.35468 15.8958 4.10413C16.6447 4.85357 17.2386 5.73552 17.6775 6.74996C18.1163 7.7644 18.335 8.84774 18.3333 9.99996C18.3316 11.1522 18.1127 12.2355 17.6766 13.25C17.2405 14.2644 16.6469 15.1463 15.8958 15.8958C15.1447 16.6452 14.2627 17.2391 13.25 17.6775C12.2372 18.1158 11.1538 18.3344 9.99996 18.3333ZM9.16663 16.625V15C8.70829 15 8.31607 14.8369 7.98996 14.5108C7.66385 14.1847 7.50052 13.7922 7.49996 13.3333V12.5L3.49996 8.49996C3.45829 8.74996 3.42024 8.99996 3.38579 9.24996C3.35135 9.49996 3.33385 9.74996 3.33329 9.99996C3.33329 11.6805 3.88552 13.1527 4.98996 14.4166C6.0944 15.6805 7.48663 16.4166 9.16663 16.625ZM14.9166 14.5C15.1944 14.1944 15.4444 13.8647 15.6666 13.5108C15.8888 13.1569 16.0727 12.7888 16.2183 12.4066C16.3638 12.0244 16.475 11.6319 16.5516 11.2291C16.6283 10.8263 16.6666 10.4166 16.6666 9.99996C16.6666 8.63885 16.288 7.39579 15.5308 6.27079C14.7736 5.14579 13.7633 4.33329 12.5 3.83329V4.16663C12.5 4.62496 12.3369 5.01746 12.0108 5.34413C11.6847 5.67079 11.2922 5.83385 10.8333 5.83329H9.16663V7.49996C9.16663 7.73607 9.08663 7.93413 8.92663 8.09413C8.76663 8.25413 8.56885 8.33385 8.33329 8.33329H6.66663V9.99996H11.6666C11.9027 9.99996 12.1008 10.08 12.2608 10.24C12.4208 10.4 12.5005 10.5977 12.5 10.8333V13.3333H13.3333C13.6944 13.3333 14.0208 13.4411 14.3125 13.6566C14.6041 13.8722 14.8055 14.1533 14.9166 14.5Z" /></symbol><symbol viewBox="0 0 20 20" id="html"><path d="M2.5 1.66663L3.815 16.52L10 18.3333L16.2225 16.5208L17.5 1.66663H2.5ZM14.2075 6.70663H7.5625L7.70583 8.38663H14.12L13.5983 13.8575L10.06 15.0083L6.4925 13.7958L6.2525 11.3525H7.93917L8.0725 12.5283L10.0725 13.2075L12.0275 12.5716L12.275 10.0675H6.18L5.71167 5.02579H14.3883L14.2075 6.70663Z" /></symbol><symbol viewBox="0 0 20 20" id="java"><g clip-path="url(#java_clip0_312_2)"><path d="M7.37581 15.4666C7.37581 15.4666 6.61165 15.9116 7.91997 16.0616C9.50497 16.2433 10.315 16.2175 12.0608 15.8858C12.0608 15.8858 12.5208 16.1741 13.1616 16.4241C9.24581 18.1016 4.30081 16.3258 7.37581 15.4666ZM6.89663 13.2775C6.89663 13.2775 6.03997 13.9116 7.34829 14.0475C9.04163 14.2216 10.3783 14.2366 12.6925 13.7908C12.6925 13.7908 13.0125 14.115 13.515 14.2925C8.78245 15.6766 3.50911 14.4008 6.89661 13.2775H6.89663ZM10.93 9.56249C11.895 10.6733 10.6766 11.6733 10.6766 11.6733C10.6766 11.6733 13.1258 10.4083 12.0008 8.82499C10.95 7.34833 10.1441 6.61499 14.5066 4.08499C14.5066 4.08415 7.65997 5.79415 10.93 9.56249ZM16.1083 17.0866C16.1083 17.0866 16.6741 17.5525 15.4858 17.9125C13.2258 18.5975 6.07915 18.8033 4.09497 17.94C3.38163 17.6291 4.71997 17.1983 5.13997 17.1083C5.57913 17.0133 5.82997 17.0308 5.82997 17.0308C5.03581 16.4717 0.69997 18.1283 3.62747 18.6033C11.6108 19.8975 18.1791 18.02 16.1083 17.0867V17.0866ZM7.74331 11.0083C7.74331 11.0083 4.10831 11.8717 6.45665 12.185C7.44749 12.3175 9.42415 12.2875 11.265 12.1333C12.77 12.0067 14.28 11.7358 14.28 11.7358C14.28 11.7358 13.7491 11.9625 13.365 12.225C9.67415 13.1958 2.54333 12.7441 4.59665 11.7516C6.33165 10.9133 7.74331 11.0083 7.74331 11.0083V11.0083ZM14.2633 14.6533C18.0158 12.7033 16.2808 10.8292 15.07 11.0825C14.7741 11.1441 14.6408 11.1975 14.6408 11.1975C14.6408 11.1975 14.7508 11.025 14.9617 10.95C17.3575 10.1075 19.2 13.4341 14.1883 14.7516C14.1883 14.7508 14.2467 14.7 14.2633 14.6533ZM12.0008 -1.09863e-05C12.0008 -1.09863e-05 14.0791 2.07833 10.03 5.27499C6.78331 7.83915 9.28997 9.30165 10.0291 10.9716C8.13413 9.26081 6.74329 7.75665 7.67579 6.35581C9.04579 4.29831 12.84 3.30165 12.0008 -3.05176e-05L12.0008 -1.09863e-05ZM8.11163 19.9366C11.7133 20.1675 17.2441 19.8091 17.375 18.105C17.375 18.105 17.1233 18.7508 14.3983 19.2641C11.325 19.8425 7.53247 19.775 5.28415 19.4041C5.28415 19.4033 5.74499 19.785 8.11165 19.9366H8.11163Z" /></g><defs></defs></symbol><clipPath id="java_clip0_312_2"><rect width="20" height="20" fill="white" /></clipPath><symbol viewBox="0 0 20 20" id="javascript"><g clip-path="url(#javascript_clip0_23_149)"><path d="M0 0H20V20H0V0ZM18.3617 15.23C18.2158 14.3175 17.6217 13.5508 15.8592 12.8358C15.2458 12.5483 14.5642 12.3483 14.3617 11.8858C14.2858 11.6108 14.2742 11.4608 14.3233 11.2983C14.4483 10.76 15.0858 10.5983 15.5858 10.7483C15.9108 10.8483 16.2108 11.0983 16.3992 11.4983C17.2608 10.935 17.2608 10.935 17.8617 10.5608C17.6367 10.2108 17.525 10.06 17.3733 9.91084C16.8483 9.32334 16.1492 9.02334 15.0117 9.04918L14.4242 9.12334C13.8608 9.26084 13.3242 9.56084 12.9992 9.96084C12.0492 11.0367 12.3233 12.9117 13.4733 13.6867C14.6108 14.5367 16.2742 14.7233 16.4867 15.5242C16.6867 16.4992 15.7617 16.8117 14.8483 16.6992C14.1725 16.5492 13.7983 16.2108 13.3858 15.5858L11.8608 16.4617C12.0358 16.8617 12.2358 17.0358 12.5358 17.3858C13.9858 18.8492 17.6108 18.7742 18.2617 16.5492C18.2858 16.4742 18.4617 15.9617 18.3233 15.1742L18.3617 15.23ZM10.8758 9.1925H9.0025C9.0025 10.8075 8.995 12.4125 8.995 14.03C8.995 15.0567 9.0475 15.9992 8.88 16.2892C8.605 16.8633 7.89666 16.79 7.575 16.6892C7.245 16.5258 7.0775 16.3008 6.88334 15.9767C6.83084 15.8892 6.79168 15.8133 6.7775 15.8133L5.25666 16.7508C5.51082 17.2758 5.88166 17.7275 6.36 18.015C7.0725 18.44 8.03 18.5775 9.0325 18.3525C9.685 18.1641 10.2475 17.7766 10.5417 17.1766C10.9667 16.4016 10.8767 15.4516 10.8725 14.3883C10.8825 12.6766 10.8725 10.9641 10.8725 9.23914L10.8758 9.1925Z" /></g><defs></defs></symbol><clipPath id="javascript_clip0_23_149"><rect width="20" height="20" fill="white" /></clipPath><symbol viewBox="0 0 20 20" id="less"><path fill-rule="evenodd" clip-rule="evenodd" d="M19.9144 10.7765C19.4511 10.7505 19.1111 11.0133 19.0638 11.488C19.0237 11.8907 19.0382 12.2992 19.0298 12.7052C19.0243 12.9631 19.0262 13.2212 19.0151 13.4787C18.9763 14.3532 18.538 14.8312 17.6728 14.9405C17.4496 14.9686 17.224 14.9779 16.9804 14.9972C16.9804 14.6905 16.9804 14.4049 16.9804 14.1017C17.1189 14.0817 17.265 14.0703 17.4064 14.0381C17.7809 13.9527 17.9405 13.7713 17.952 13.3859C17.9663 12.8937 17.9511 12.4007 17.9661 11.9088C17.9746 11.6367 18.0023 11.363 18.0515 11.0956C18.112 10.7652 18.3224 10.5229 18.5871 10.3347C18.5821 10.3085 18.5844 10.2859 18.5755 10.2797C18.0555 9.92067 17.9729 9.37827 17.9645 8.80895C17.9572 8.34005 17.9672 7.87084 17.9608 7.40184C17.9523 6.77119 17.7514 6.56994 17.1157 6.53853C17.0773 6.53663 17.0391 6.53155 16.9821 6.52616C16.9821 6.23088 16.9821 5.93979 16.9821 5.62795C17.4751 5.63523 17.9563 5.65567 18.3897 5.90787C18.8446 6.17244 18.9882 6.61582 19.0094 7.10077C19.0343 7.66262 19.0116 8.22656 19.036 8.78841C19.046 9.01668 19.0879 9.2591 19.1819 9.46434C19.317 9.75822 19.578 9.89435 19.9146 9.8375C19.9144 10.1505 19.9144 10.4636 19.9144 10.7765ZM2.67172 14.0679C2.25248 14.0226 2.03947 13.8007 2.01573 13.3827C2.00785 13.2424 2.01025 13.1014 2.00736 12.9606C1.99649 12.4372 1.99589 11.9131 1.97066 11.3904C1.95131 10.9914 1.79464 10.6479 1.46426 10.402C1.42756 10.375 1.3777 10.3654 1.33212 10.3468C1.87143 9.83541 1.93625 9.73399 1.98661 9.03722C2.02022 8.57021 2.02152 8.09881 2.00357 7.63071C1.96118 6.51709 2.41961 6.53663 3.16745 6.54711C3.18909 6.54741 3.21063 6.55927 3.25969 6.57413C3.25969 6.66119 3.25969 6.75284 3.25969 6.84438C3.25979 8.47108 3.2548 10.0979 3.26298 11.7244C3.26518 12.1912 3.31723 12.657 3.74026 12.9643C4.11832 13.239 4.55989 13.2689 5.02212 13.2838C5.07507 12.9615 5.12473 12.6592 5.1739 12.3599C4.52449 12.2086 4.41091 12.0655 4.41071 11.4328C4.41031 9.59487 4.41051 7.75706 4.41051 5.91914C4.41051 5.8279 4.41051 5.73665 4.41051 5.63672C4.34599 5.63104 4.30839 5.62436 4.27089 5.62516C3.6538 5.63712 3.03511 5.62755 2.41991 5.66814C1.45558 5.73166 0.98967 6.22051 0.955465 7.17916C0.93562 7.73382 0.947886 8.28939 0.938811 8.84455C0.928539 9.479 0.714332 9.74207 0.116187 9.8739C0.102325 9.8768 0.0909564 9.89136 0.0855713 9.89534C0.0855713 10.186 0.0855713 10.4707 0.0855713 10.7526C0.620392 10.8176 0.880073 11.0566 0.918268 11.5828C0.953171 12.0654 0.926644 12.552 0.943398 13.0361C0.953969 13.3392 0.959853 13.6498 1.02856 13.9427C1.20148 14.6799 2.14966 15.1562 2.99782 14.9529C2.99782 14.6751 2.99782 14.3954 2.99782 14.0887C2.87226 14.081 2.77164 14.0789 2.67172 14.0679ZM9.51459 9.27077C9.3284 8.81144 9.02454 8.45762 8.5719 8.24072C7.4143 7.68606 6.00659 8.16932 5.46758 9.33001C5.06141 10.2046 5.07427 11.105 5.43208 11.9919C5.63263 12.489 5.99782 12.8551 6.49484 13.0657C7.4151 13.4554 8.34263 13.3564 9.26618 13.0713C9.31574 13.0559 9.38435 12.9731 9.37886 12.9299C9.34376 12.6563 9.29041 12.385 9.24264 12.1105C8.39548 12.3414 7.9907 12.3807 7.45748 12.2883C6.7995 12.1745 6.31813 11.6058 6.40908 11.0189C7.49667 11.0189 8.58895 11.0189 9.6899 11.0189C9.77487 10.4592 9.69868 9.72551 9.51459 9.27077ZM7.4876 8.98087C8.15774 8.9703 8.57569 9.41856 8.56721 10.1596C7.8466 10.1596 7.1256 10.1596 6.40479 10.1596C6.37727 9.53923 6.88367 8.99045 7.4876 8.98087ZM12.0907 8.02901C11.6353 7.99301 11.1909 8.07119 10.7721 8.27961C9.83011 8.74852 9.81745 10.1972 10.6538 10.6764C10.9032 10.8192 11.1722 10.9276 11.4323 11.052C11.7131 11.1865 12.0035 11.3049 12.2716 11.4612C12.4503 11.5653 12.5254 11.7533 12.4827 11.9693C12.4383 12.1941 12.2776 12.3085 12.0719 12.3286C11.7783 12.3572 11.4773 12.3847 11.1867 12.3504C10.836 12.3091 10.4932 12.2025 10.1341 12.121C10.0871 12.3437 10.0507 12.567 9.99087 12.7836C9.93971 12.9694 9.97841 13.0575 10.1778 13.12C10.8881 13.3426 11.6077 13.3638 12.3333 13.2499C13.0478 13.1374 13.5325 12.7091 13.6122 12.1533C13.7279 11.3451 13.473 10.8556 12.7417 10.4932C12.5739 10.4101 12.3999 10.3397 12.227 10.2679C12.0684 10.202 11.9064 10.145 11.7479 10.0788C11.6617 10.0428 11.5785 9.99886 11.4968 9.95328C11.2811 9.83252 11.1512 9.6577 11.1854 9.39981C11.2138 9.18641 11.3894 9.03792 11.6686 8.98785C12.183 8.89561 12.6772 8.99573 13.1833 9.17284C13.2526 8.86918 13.3195 8.57639 13.4011 8.22008C12.9474 8.15137 12.5211 8.06291 12.0907 8.02901ZM15.8721 8.02901C15.4168 7.99301 14.9723 8.07119 14.5535 8.27961C13.6119 8.74852 13.5991 10.1972 14.4353 10.6764C14.6847 10.8192 14.9536 10.9276 15.2138 11.052C15.4946 11.1865 15.7849 11.3049 16.053 11.4612C16.2318 11.5653 16.307 11.7533 16.2641 11.9693C16.2197 12.1941 16.0592 12.3085 15.8535 12.3286C15.5598 12.3572 15.2588 12.3847 14.9681 12.3504C14.6176 12.3091 14.2747 12.2025 13.9156 12.121C13.8685 12.3437 13.8322 12.567 13.7724 12.7836C13.7213 12.9694 13.7597 13.0575 13.9591 13.12C14.6694 13.3426 15.3891 13.3638 16.1146 13.2499C16.8293 13.1374 17.3138 12.7091 17.3935 12.1533C17.5093 11.3451 17.2545 10.8556 16.523 10.4932C16.3553 10.4101 16.1813 10.3397 16.0083 10.2679C15.85 10.202 15.6877 10.145 15.5292 10.0788C15.4431 10.0428 15.3599 9.99886 15.2781 9.95328C15.0627 9.83252 14.9325 9.6577 14.9668 9.39981C14.9952 9.18641 15.1707 9.03792 15.45 8.98785C15.9643 8.89561 16.4588 8.99573 16.9647 9.17284C17.0341 8.86918 17.1011 8.57639 17.1825 8.22008C16.7289 8.15137 16.3026 8.06291 15.8721 8.02901Z" /></symbol><symbol viewBox="0 0 20 20" id="linkedin"><g clip-path="url(#linkedin_clip0_19_27)"><path d="M18.125 0H1.875C0.84375 0 0 0.84375 0 1.875V18.125C0 19.1562 0.84375 20 1.875 20H18.125C19.1562 20 20 19.1562 20 18.125V1.875C20 0.84375 19.1562 0 18.125 0ZM7.5 16.25H5V7.5H7.5V16.25ZM6.25 6.25C5.55859 6.25 5 5.69141 5 5C5 4.30859 5.55859 3.75 6.25 3.75C6.94141 3.75 7.5 4.30859 7.5 5C7.5 5.69141 6.94141 6.25 6.25 6.25ZM16.25 16.25H13.75V11.25C13.75 10.5586 13.1914 10 12.5 10C11.8086 10 11.25 10.5586 11.25 11.25V16.25H8.75V7.5H11.25V9.05078C11.7656 8.34375 12.5547 7.5 13.4375 7.5C14.9922 7.5 16.25 8.89844 16.25 10.625V16.25Z" /></g><defs></defs></symbol><clipPath id="linkedin_clip0_19_27"><rect width="20" height="20" fill="white" /></clipPath><symbol viewBox="0 0 20 20" id="nodejs"><path d="M10.0346 19.9629C9.75955 19.9629 9.50279 19.8895 9.26437 19.7612L6.82518 18.3123C6.45838 18.1106 6.64178 18.0372 6.75182 18.0005C7.24699 17.8355 7.33869 17.7988 7.85221 17.5054C7.90723 17.4687 7.98059 17.487 8.0356 17.5237L9.90627 18.6424C9.97963 18.6791 10.0713 18.6791 10.1263 18.6424L17.4439 14.4059C17.5173 14.3692 17.554 14.2959 17.554 14.2042V5.74953C17.554 5.65783 17.5173 5.58447 17.4439 5.54779L10.1263 1.32964C10.053 1.29296 9.96129 1.29296 9.90627 1.32964L2.58868 5.54779C2.51532 5.58447 2.47864 5.67617 2.47864 5.74953V14.2042C2.47864 14.2775 2.51532 14.3692 2.58868 14.4059L4.58772 15.5613C5.66977 16.1115 6.34834 15.4696 6.34834 14.8277V6.48313C6.34834 6.37309 6.44004 6.26305 6.56842 6.26305H7.50375C7.61379 6.26305 7.72383 6.35475 7.72383 6.48313V14.8277C7.72383 16.2766 6.93522 17.1202 5.55973 17.1202C5.13791 17.1202 4.8078 17.1202 3.87247 16.6617L1.94679 15.5613C1.46995 15.2862 1.17651 14.7727 1.17651 14.2225V5.76787C1.17651 5.21768 1.46995 4.70416 1.94679 4.42907L9.26437 0.192568C9.72287 -0.0641893 10.3464 -0.0641893 10.8049 0.192568L18.1225 4.42907C18.5993 4.70416 18.8928 5.21768 18.8928 5.76787V14.2225C18.8928 14.7727 18.5993 15.2862 18.1225 15.5613L10.8049 19.7978C10.5665 19.9079 10.2914 19.9629 10.0346 19.9629ZM12.2904 14.1492C9.08097 14.1492 8.42074 12.682 8.42074 11.4349C8.42074 11.3248 8.51244 11.2148 8.64082 11.2148H9.59449C9.70453 11.2148 9.79623 11.2882 9.79623 11.3982C9.94295 12.3702 10.3648 12.847 12.3088 12.847C13.8493 12.847 14.5096 12.4986 14.5096 11.6733C14.5096 11.1965 14.3262 10.848 11.9236 10.6096C9.92461 10.4078 8.6775 9.96769 8.6775 8.37213C8.6775 6.8866 9.92461 6.00629 12.0153 6.00629C14.3628 6.00629 15.5183 6.81324 15.665 8.57386C15.665 8.62888 15.6466 8.6839 15.6099 8.73892C15.5733 8.7756 15.5183 8.81228 15.4632 8.81228H14.5096C14.4179 8.81228 14.3262 8.73892 14.3078 8.64722C14.0877 7.63853 13.5192 7.30842 12.0153 7.30842C10.3281 7.30842 10.1263 7.89529 10.1263 8.33545C10.1263 8.8673 10.3648 9.03236 12.6389 9.3258C14.8947 9.61923 15.9584 10.041 15.9584 11.6183C15.9401 13.2322 14.6196 14.1492 12.2904 14.1492Z" /></symbol><symbol viewBox="0 0 20 20" id="package"><path d="M9.16667 16.1875V10.4791L4.16667 7.58329V13.2916L9.16667 16.1875ZM10.8333 16.1875L15.8333 13.2916V7.58329L10.8333 10.4791V16.1875ZM9.16667 18.1041L3.33333 14.75C3.06944 14.5972 2.86472 14.3958 2.71917 14.1458C2.57361 13.8958 2.50056 13.618 2.5 13.3125V6.68746C2.5 6.3819 2.57306 6.10413 2.71917 5.85413C2.86528 5.60413 3.07 5.40274 3.33333 5.24996L9.16667 1.89579C9.43056 1.74301 9.70833 1.66663 10 1.66663C10.2917 1.66663 10.5694 1.74301 10.8333 1.89579L16.6667 5.24996C16.9306 5.40274 17.1356 5.60413 17.2817 5.85413C17.4278 6.10413 17.5006 6.3819 17.5 6.68746V13.3125C17.5 13.618 17.4272 13.8958 17.2817 14.1458C17.1361 14.3958 16.9311 14.5972 16.6667 14.75L10.8333 18.1041C10.5694 18.2569 10.2917 18.3333 10 18.3333C9.70833 18.3333 9.43056 18.2569 9.16667 18.1041ZM13.3333 7.10413L14.9375 6.18746L10 3.33329L8.375 4.27079L13.3333 7.10413ZM10 9.04163L11.625 8.10413L6.6875 5.24996L5.0625 6.18746L10 9.04163Z" /></symbol><symbol viewBox="0 0 20 20" id="person"><path d="M9.99992 10C9.08325 10 8.29853 9.67365 7.64575 9.02087C6.99297 8.3681 6.66659 7.58337 6.66659 6.66671C6.66659 5.75004 6.99297 4.96532 7.64575 4.31254C8.29853 3.65976 9.08325 3.33337 9.99992 3.33337C10.9166 3.33337 11.7013 3.65976 12.3541 4.31254C13.0069 4.96532 13.3333 5.75004 13.3333 6.66671C13.3333 7.58337 13.0069 8.3681 12.3541 9.02087C11.7013 9.67365 10.9166 10 9.99992 10ZM3.33325 16.6667V14.3334C3.33325 13.8612 3.45492 13.4273 3.69825 13.0317C3.94159 12.6362 4.26436 12.3339 4.66659 12.125C5.5277 11.6945 6.4027 11.3717 7.29159 11.1567C8.18047 10.9417 9.08325 10.8339 9.99992 10.8334C10.9166 10.8328 11.8194 10.9406 12.7083 11.1567C13.5971 11.3728 14.4721 11.6956 15.3333 12.125C15.736 12.3334 16.0591 12.6356 16.3024 13.0317C16.5458 13.4278 16.6671 13.8617 16.6666 14.3334V16.6667H3.33325Z" /></symbol><symbol viewBox="0 0 20 20" id="react"><g clip-path="url(#react_clip0_23_166)"><path d="M10 8.2175C9.01557 8.2175 8.21752 9.01555 8.21752 10C8.21752 10.9845 9.01557 11.7825 10 11.7825C10.9845 11.7825 11.7825 10.9845 11.7825 10C11.7825 9.01555 10.9845 8.2175 10 8.2175ZM5.00668 13.5458L4.61334 13.4458C1.68168 12.705 0 11.4475 0 9.99668C0 8.54586 1.68166 7.28834 4.61334 6.54752L5.00668 6.44836L5.11752 6.83836C5.45789 8.00114 5.84422 8.99006 6.30443 9.93643L6.25336 9.82002L6.33752 9.99752L6.25336 10.175C5.84305 11.0059 5.45668 11.9949 5.15254 13.0192L5.11752 13.1567L5.00668 13.5458ZM4.43086 7.45834C2.20252 8.08418 0.835019 9.04168 0.835019 9.99668C0.835019 10.9508 2.20252 11.9083 4.43086 12.535C4.75068 11.5226 5.08469 10.6821 5.46971 9.87055L5.41586 9.9967C5.08387 9.31035 4.74984 8.46985 4.47145 7.6044L4.43086 7.45836V7.45834ZM14.9934 13.5458L14.8825 13.155C14.5427 11.9933 14.1561 11.0046 13.6951 10.0589L13.7459 10.1742L13.6617 9.99666L13.7459 9.81916C14.1558 8.98873 14.5424 7.99979 14.8472 6.97561L14.8825 6.8375L14.9934 6.4475L15.3875 6.54666C18.3184 7.2875 20 8.545 20 9.99666C20 11.4483 18.3184 12.705 15.3875 13.4458L14.9934 13.5458ZM14.5842 9.99666C14.9842 10.8625 15.315 11.7133 15.5692 12.535C17.7983 11.9083 19.165 10.9508 19.165 9.99666C19.165 9.04166 17.7975 8.085 15.5692 7.45832C15.25 8.46994 14.916 9.31045 14.5307 10.1218L14.5842 9.99664V9.99666ZM4.42502 7.45416L4.31418 7.065C3.49002 4.16 3.74002 2.07834 5.00002 1.35166C6.23586 0.638323 8.22002 1.48082 10.2992 3.615L10.5825 3.90584L10.2992 4.19668C9.58285 4.94049 8.91971 5.7478 8.32318 6.60492L8.28084 6.66918L8.16834 6.83002L7.9725 6.84668C6.80082 6.94084 5.72498 7.12094 4.68219 7.38412L4.81832 7.35502L4.42502 7.45416ZM6.00502 1.92916C5.78168 1.92916 5.58418 1.9775 5.41752 2.07332C4.58918 2.55082 4.44252 4.21082 5.01336 6.45082C5.76982 6.27272 6.68883 6.12518 7.6257 6.03938L7.70754 6.03332C8.26633 5.24326 8.82758 4.55186 9.43029 3.89934L9.41754 3.91332C8.11754 2.64748 6.8867 1.92916 6.00504 1.92916H6.00502ZM13.9959 18.8975C13.995 18.8975 13.995 18.8975 13.9959 18.8975C12.8084 18.8975 11.2834 18.0033 9.70086 16.3783L9.41752 16.0875L9.70086 15.7967C10.4169 15.0527 11.0798 14.2451 11.676 13.3877L11.7184 13.3233L11.8309 13.1625L12.0259 13.1458C13.1978 13.0522 14.2743 12.8724 15.3176 12.6093L15.1817 12.6383L15.575 12.5392L15.6867 12.9292C16.5092 15.8325 16.26 17.915 15 18.6408C14.7193 18.8024 14.3827 18.8977 14.0238 18.8977C14.014 18.8977 14.0042 18.8976 13.9944 18.8975L13.9959 18.8975ZM10.5825 16.08C11.8825 17.3458 13.1134 18.0642 13.995 18.0642H13.9959C14.2184 18.0642 14.4167 18.0158 14.5825 17.92C15.4109 17.4425 15.5584 15.7817 14.9867 13.5417C14.2295 13.7201 13.3102 13.8677 12.3729 13.9532L12.2917 13.9592C11.7337 14.7497 11.1726 15.4413 10.5698 16.0939L10.5825 16.08ZM15.575 7.45416L15.1817 7.355C14.2737 7.12006 13.1972 6.93992 12.095 6.85115L12.0259 6.84668L11.8309 6.83002L11.7184 6.66918C11.0803 5.74764 10.4174 4.9403 9.69506 4.19063L9.70086 4.19668L9.41752 3.90584L9.70086 3.615C11.7792 1.48166 13.7625 0.639163 15 1.35166C16.26 2.07832 16.51 4.16 15.6867 7.06416L15.575 7.45416ZM12.2917 6.03334C13.2433 6.12 14.1475 6.26084 14.9867 6.45084C15.5583 4.21084 15.4108 2.55084 14.5825 2.07334C13.7592 1.5975 12.2117 2.32668 10.5825 3.91334C11.1721 4.55182 11.7331 5.24321 12.2485 5.96924L12.2917 6.03334ZM6.00502 18.8975C5.99645 18.8976 5.98635 18.8977 5.97621 18.8977C5.61736 18.8977 5.28076 18.8024 4.99035 18.6357L5.00002 18.6408C3.74002 17.915 3.49002 15.8333 4.31418 12.9292L4.42418 12.5392L4.81752 12.6383C5.78002 12.8808 6.84168 13.0517 7.97168 13.1458L8.16752 13.1625L8.27918 13.3233C8.91822 14.245 9.58135 15.0526 10.3035 15.8029L10.2975 15.7967L10.5809 16.0875L10.2975 16.3783C8.71586 18.0033 7.19086 18.8975 6.00502 18.8975ZM5.01336 13.5417C4.4417 15.7817 4.5892 17.4425 5.41752 17.92C6.24002 18.3892 7.78668 17.6658 9.41752 16.08C8.82805 15.4413 8.2668 14.7496 7.75092 14.0235L7.70752 13.9592C6.68943 13.8678 5.77041 13.7202 4.8735 13.5147L5.01336 13.5417ZM10 14.065C9.31418 14.065 8.60918 14.035 7.90336 13.9767L7.70752 13.96L7.59502 13.7992C7.25481 13.3194 6.88299 12.7422 6.53459 12.1496L6.47002 12.0308C6.18723 11.5571 5.86328 10.9486 5.56408 10.326L5.49836 10.1742L5.41502 9.99668L5.49836 9.81918C5.86313 9.04496 6.18707 8.43645 6.53453 7.84336L6.47002 7.9625C6.81502 7.36584 7.19418 6.77084 7.59502 6.19416L7.70752 6.03332L7.90336 6.01666C8.53156 5.96014 9.26225 5.92791 10.0004 5.92791C10.7387 5.92791 11.4694 5.96014 12.1912 6.02326L12.0975 6.01666L12.2925 6.03332L12.4042 6.19416C13.1396 7.23533 13.8382 8.42362 14.4367 9.6691L14.5017 9.81916L14.5859 9.99666L14.5017 10.1742C13.8405 11.5689 13.1418 12.7573 12.3522 13.877L12.4042 13.7992L12.2925 13.96L12.0975 13.9767C11.3917 14.035 10.6859 14.065 10 14.065ZM8.16918 13.1617C9.40252 13.2542 10.5975 13.2542 11.8317 13.1617C12.4591 12.2583 13.0681 11.2215 13.5986 10.1391L13.6617 9.99666C13.0699 8.77289 12.4606 7.73596 11.7791 6.7528L11.8308 6.83166C11.2828 6.78748 10.6443 6.76229 10 6.76229C9.35566 6.76229 8.71725 6.78748 8.08562 6.83692L8.16916 6.83166C7.53889 7.73619 6.92953 8.77315 6.40022 9.85637L6.33832 9.99666C6.93268 11.2217 7.54193 12.2585 8.22205 13.2426L8.16914 13.1617H8.16918Z" /></g><defs></defs></symbol><clipPath id="react_clip0_23_166"><rect width="20" height="20" fill="white" /></clipPath><symbol viewBox="0 0 20 20" id="school"><path d="M9.99992 2.5L0.833252 7.5L9.99992 12.5L17.4999 8.40833V14.1667H19.1666V7.5M4.16659 10.9833V14.3167L9.99992 17.5L15.8333 14.3167V10.9833L9.99992 14.1667L4.16659 10.9833Z" /></symbol><symbol viewBox="0 0 20 20" id="search"><g clip-path="url(#search_clip0_29_31)"><path d="M19.3801 17.0195L14.6428 12.9903C14.153 12.5495 13.6293 12.3472 13.2062 12.3667C14.3245 11.0568 15 9.35738 15 7.5C15 3.35785 11.6421 0 7.5 0C3.35785 0 0 3.35785 0 7.5C0 11.6421 3.35785 15 7.5 15C9.35738 15 11.0568 14.3245 12.3667 13.2062C12.3472 13.6293 12.5495 14.153 12.9903 14.6427L17.0195 19.3801C17.7093 20.1466 18.8363 20.2112 19.5238 19.5238C20.2112 18.8363 20.1466 17.7093 19.3801 17.0195ZM7.5 12.5C4.73859 12.5 2.5 10.2614 2.5 7.5C2.5 4.73859 4.73859 2.5 7.5 2.5C10.2614 2.5 12.5 4.73859 12.5 7.5C12.5 10.2614 10.2614 12.5 7.5 12.5Z" /></g><defs></defs></symbol><clipPath id="search_clip0_29_31"><rect width="20" height="20" fill="white" /></clipPath><symbol viewBox="0 0 20 20" id="sidebar"><path d="M3.33329 16.6667C2.87496 16.6667 2.48274 16.5037 2.15663 16.1775C1.83051 15.8514 1.66718 15.4589 1.66663 15V5.00004C1.66663 4.54171 1.82996 4.14948 2.15663 3.82337C2.48329 3.49726 2.87551 3.33393 3.33329 3.33337H16.6666C17.125 3.33337 17.5175 3.49671 17.8441 3.82337C18.1708 4.15004 18.3338 4.54226 18.3333 5.00004V15C18.3333 15.4584 18.1702 15.8509 17.8441 16.1775C17.518 16.5042 17.1255 16.6673 16.6666 16.6667H3.33329ZM14.5833 7.22921H16.6666V5.00004H14.5833V7.22921ZM14.5833 11.1042H16.6666V8.89587H14.5833V11.1042ZM3.33329 15H12.9166V5.00004H3.33329V15ZM14.5833 15H16.6666V12.7709H14.5833V15Z" /></symbol><symbol viewBox="0 0 20 20" id="threejs"><path fill-rule="evenodd" clip-rule="evenodd" d="M6.34865 18.0679L2.53748 2.63902L17.8155 7.03766L6.34865 18.0679Z" stroke-width="0.35278" stroke-miterlimit="10" stroke-linejoin="round" /><path fill-rule="evenodd" clip-rule="evenodd" d="M10.1737 4.83879L12.0779 12.5555L4.44311 10.3555L10.1737 4.83879Z" stroke-width="0.35278" stroke-miterlimit="10" stroke-linejoin="round" /><path fill-rule="evenodd" clip-rule="evenodd" d="M8.27924 11.4021L7.33344 7.56871L11.1265 8.65756L8.27924 11.4021Z" stroke-width="0.35278" stroke-miterlimit="10" stroke-linejoin="round" /><path fill-rule="evenodd" clip-rule="evenodd" d="M6.38728 3.73997L7.33308 7.57337L3.53999 6.48452L6.38728 3.73997Z" stroke-width="0.35278" stroke-miterlimit="10" stroke-linejoin="round" /><path fill-rule="evenodd" clip-rule="evenodd" d="M13.9731 5.92519L14.9189 9.75859L11.1258 8.66973L13.9731 5.92519Z" stroke-width="0.35278" stroke-miterlimit="10" stroke-linejoin="round" /><path fill-rule="evenodd" clip-rule="evenodd" d="M8.27968 11.4047L9.22549 15.2381L5.43239 14.1493L8.27968 11.4047Z" stroke-width="0.35278" stroke-miterlimit="10" stroke-linejoin="round" /></symbol><symbol viewBox="0 0 20 20" id="typescript"><g clip-path="url(#typescript_clip0_1_191)"><g mask="url(#typescript_mask0_1_191)"><path d="M19.5242 2.92424e-06H0.475001C0.412553 2.82814e-06 0.350717 0.0123166 0.293033 0.0362397C0.235349 0.0601628 0.182949 0.0952256 0.13883 0.139422C0.0947113 0.183618 0.0597404 0.23608 0.0359185 0.293806C0.0120966 0.351532 -0.000108826 0.413388 7.32347e-07 0.475836V19.525C-0.000109045 19.5875 0.0121238 19.6494 0.0359978 19.7072C0.0598718 19.765 0.0949172 19.8175 0.139124 19.8617C0.183331 19.9059 0.23583 19.941 0.293611 19.9648C0.351391 19.9887 0.413316 20.0009 0.475834 20.0008H19.525C19.5875 20.0009 19.6494 19.9887 19.7072 19.9648C19.765 19.941 19.8175 19.9059 19.8617 19.8617C19.9059 19.8175 19.941 19.765 19.9648 19.7072C19.9887 19.6494 20.0009 19.5875 20.0008 19.525V0.475003C20.0008 0.412485 19.9885 0.350581 19.9645 0.292843C19.9405 0.235104 19.9054 0.182666 19.8611 0.138537C19.8168 0.0944069 19.7643 0.0594534 19.7065 0.0356807C19.6486 0.0119079 19.5867 -0.000216438 19.5242 2.92424e-06ZM11.905 10.6883H9.52417V18.095H7.61917V10.6883H5.23833V9.0475H11.905V10.6883ZM12.4383 17.6717V15.6925C12.4383 15.6925 13.52 16.5075 14.8175 16.5075C16.115 16.5075 16.065 15.6592 16.065 15.5425C16.065 14.3117 12.3883 14.3117 12.3883 11.5833C12.3883 7.87334 17.7458 9.3375 17.7458 9.3375L17.6792 11.1008C17.6792 11.1008 16.7808 10.5017 15.7658 10.5017C14.7508 10.5017 14.385 10.985 14.385 11.5C14.385 12.8308 18.095 12.6983 18.095 15.3767C18.095 19.5017 12.4383 17.6725 12.4383 17.6725" /></g></g><defs></defs></symbol><mask id="typescript_mask0_1_191" style="mask-type:luminance" maskUnits="userSpaceOnUse" x="0" y="0" width="20" height="20"><path d="M0 0H20V20H0V0Z" fill="white" /></mask><clipPath id="typescript_clip0_1_191"><rect width="20" height="20" fill="white" /></clipPath><symbol viewBox="0 0 20 20" id="user"><g clip-path="url(#user_clip0_31_99)"><path d="M10 0C15.5246 0 20 4.47545 20 10C20 15.4911 15.5469 20 10 20C4.46429 20 0 15.5022 0 10C0 4.47545 4.47545 0 10 0ZM16.9085 15.0781C17.9464 13.6496 18.5714 11.8973 18.5714 10C18.5714 5.27902 14.721 1.42857 10 1.42857C5.27902 1.42857 1.42857 5.27902 1.42857 10C1.42857 11.8973 2.05357 13.6496 3.09152 15.0781C3.4933 13.0804 4.46429 11.4286 6.5067 11.4286C7.41071 12.3103 8.63839 12.8571 10 12.8571C11.3616 12.8571 12.5893 12.3103 13.4933 11.4286C15.5357 11.4286 16.5067 13.0804 16.9085 15.0781ZM14.2857 7.85714C14.2857 5.49107 12.3661 3.57143 10 3.57143C7.63393 3.57143 5.71429 5.49107 5.71429 7.85714C5.71429 10.2232 7.63393 12.1429 10 12.1429C12.3661 12.1429 14.2857 10.2232 14.2857 7.85714Z" /></g><defs></defs></symbol><clipPath id="user_clip0_31_99"><rect width="20" height="20" fill="white" /></clipPath><symbol viewBox="0 0 20 20" id="webpack"><path d="M17.5131 15.1002L10.2926 19.1667V15.9994L14.7914 13.5355L17.5131 15.1002ZM18.007 14.6548V6.15039L15.3647 7.66874V13.1348L18.007 14.6548ZM2.43814 15.1002L9.65872 19.1667V15.9994L5.1599 13.5355L2.43814 15.1002ZM1.94421 14.6548V6.15039L4.58646 7.66874V13.1348L1.94421 14.6548ZM2.25339 5.60016L9.65872 1.42883V4.49116L4.87839 7.10983L2.25339 5.60016ZM17.698 5.60016L10.2926 1.42883V4.49116L15.0729 7.10991L17.698 5.60016ZM9.6588 15.279L5.22031 12.8494V8.03498L9.65865 10.5866L9.6588 15.279ZM10.2926 15.279L14.7309 12.8494V8.03498L10.2926 10.5866V15.279ZM5.52089 7.47782L9.97648 5.03782L14.4321 7.47782L9.97648 10.0398L5.52089 7.47782Z" /></symbol></defs><use id="arrow-down-usage" xlink:href="#arrow-down" class="sprite-symbol-usage" /><use id="briefcase-usage" xlink:href="#briefcase" class="sprite-symbol-usage" /><use id="close-usage" xlink:href="#close" class="sprite-symbol-usage" /><use id="css-usage" xlink:href="#css" class="sprite-symbol-usage" /><use id="database-usage" xlink:href="#database" class="sprite-symbol-usage" /><use id="embed-usage" xlink:href="#embed" class="sprite-symbol-usage" /><use id="figma-usage" xlink:href="#figma" class="sprite-symbol-usage" /><use id="gamepad-usage" xlink:href="#gamepad" class="sprite-symbol-usage" /><use id="git-usage" xlink:href="#git" class="sprite-symbol-usage" /><use id="github-usage" xlink:href="#github" class="sprite-symbol-usage" /><use id="globe-usage" xlink:href="#globe" class="sprite-symbol-usage" /><use id="html-usage" xlink:href="#html" class="sprite-symbol-usage" /><use id="java-usage" xlink:href="#java" class="sprite-symbol-usage" /><use id="javascript-usage" xlink:href="#javascript" class="sprite-symbol-usage" /><use id="less-usage" xlink:href="#less" class="sprite-symbol-usage" /><use id="linkedin-usage" xlink:href="#linkedin" class="sprite-symbol-usage" /><use id="nodejs-usage" xlink:href="#nodejs" class="sprite-symbol-usage" /><use id="package-usage" xlink:href="#package" class="sprite-symbol-usage" /><use id="person-usage" xlink:href="#person" class="sprite-symbol-usage" /><use id="react-usage" xlink:href="#react" class="sprite-symbol-usage" /><use id="school-usage" xlink:href="#school" class="sprite-symbol-usage" /><use id="search-usage" xlink:href="#search" class="sprite-symbol-usage" /><use id="sidebar-usage" xlink:href="#sidebar" class="sprite-symbol-usage" /><use id="threejs-usage" xlink:href="#threejs" class="sprite-symbol-usage" /><use id="typescript-usage" xlink:href="#typescript" class="sprite-symbol-usage" /><use id="user-usage" xlink:href="#user" class="sprite-symbol-usage" /><use id="webpack-usage" xlink:href="#webpack" class="sprite-symbol-usage" /></svg>